<svg xmlns="http://www.w3.org/2000/svg" version="1.1" xmlns:xlink="http://www.w3.org/1999/xlink" xmlns:svgjs="http://svgjs.dev/svgjs" width="2000" height="1247" viewBox="0 0 2000 1247"><g transform="matrix(1,0,0,1,-1.2121212121212466,0.504858299595071)"><svg viewBox="0 0 396 247" data-background-color="#ffffff" preserveAspectRatio="xMidYMid meet" height="1247" width="2000" xmlns="http://www.w3.org/2000/svg" xmlns:xlink="http://www.w3.org/1999/xlink"><g id="tight-bounds" transform="matrix(1,0,0,1,0.2400000000000091,-0.09999999999999432)"><svg viewBox="0 0 395.52 247.2" height="247.2" width="395.52"><g><svg></svg></g><g><svg viewBox="0 0 395.52 247.2" height="247.2" width="395.52"><mask id="b15668bc-4289-449b-b653-594a7801ad8c"><rect width="640" height="400" fill="white"></rect><g transform="matrix(1,0,0,1,44.16,85.7891742861872)"><svg viewBox="0 0 307.2 75.62165142762558" height="75.62165142762558" width="307.2"><g><svg viewBox="0 0 307.2 75.62165142762558" height="75.62165142762558" width="307.2"><g><svg viewBox="0 0 307.2 75.62165142762558" height="75.62165142762558" width="307.2"><g><svg viewBox="0 0 307.2 75.62165142762558" height="75.62165142762558" width="307.2"><g id="SvgjsG1154"><svg viewBox="0 0 307.2 75.62165142762558" height="75.62165142762558" width="307.2" id="SvgjsSvg1153"><g><svg viewBox="0 0 307.2 75.62165142762558" height="75.62165142762558" width="307.2"><g transform="matrix(1,0,0,1,0,0)"><svg width="307.2" viewBox="-2.35 -54.5 247.0410529963813 61.57142857142857" height="75.62165142762558" data-palette-color="url(#3f26c264-47a9-453b-ab5b-3c4e6e2d6b7b)"><g transform="matrix(1,0,0,1,0,0)"><g><svg width="7.026570622738311" viewBox="-1.3199999999999998 -12.53 17.52 17.490000000000002" height="7.011468811736896" data-palette-color="url(#3f26c264-47a9-453b-ab5b-3c4e6e2d6b7b)" id="SvgjsSvg1152" x="231.70922768501214" y="-8.47427440586845"><path d="M7.44 0.46L7.44 0.46Q5.68 0.46 4.43-0.79 3.18-2.04 3.18-3.8L3.18-3.8Q3.18-5.54 4.43-6.78 5.68-8.03 7.44-8.03L7.44-8.03Q9.14-8.03 10.42-6.78 11.7-5.54 11.7-3.8L11.7-3.8Q11.7-2.63 11.11-1.66 10.51-0.69 9.55-0.12 8.59 0.46 7.44 0.46Z" opacity="1" transform="matrix(1,0,0,1,0,0)" fill="black" class="undefined-123" id="SvgjsPath1151" stroke-width="8" stroke="black" stroke-linejoin="round"></path></svg></g></g><path d="M230.254-4.969C230.254-7.713 232.478-9.937 235.223-9.937 237.967-9.937 240.191-7.713 240.191-4.969 240.191-2.224 237.967 0 235.223 0 232.478 0 230.254-2.224 230.254-4.969ZM235.223-0.4C237.746-0.4 239.791-2.445 239.791-4.969 239.791-7.492 237.746-9.537 235.223-9.537 232.699-9.537 230.654-7.492 230.654-4.969 230.654-2.445 232.699-0.4 235.223-0.4Z" fill="black" id="SvgjsPath1150" stroke-width="8" stroke="black" stroke-linejoin="round"></path><g class="wordmark-text-0" data-fill-palette-color="primary" id="SvgjsG1149"><path d="M6.5-0.5L6.5-27.5Q6.5-28.85 7.1-30.33 7.7-31.8 8.7-33.08 9.7-34.35 10.85-35L10.85-35 26-43.75 26-38.75 10.85-30 10.85-19 26-27.75 26-22.75 10.85-14 10.85-3 26-11.75 26-6.75 10.85 2Q9.1 3 7.8 2.25 6.5 1.5 6.5-0.5L6.5-0.5ZM21.65-14.25L26-11.75 10.85-3 6.5-5.5 21.65-14.25ZM21.65-30.25L26-27.75 10.85-19 6.5-21.5 21.65-30.25ZM21.65-46.25L26-43.75 10.85-35Q9.7-34.35 8.7-33.08 7.7-31.8 7.1-30.33 6.5-28.85 6.5-27.5L6.5-27.5 6.5-0.5Q6.5 1.5 7.8 2.25L7.8 2.25 3.45-0.25Q2.15-1 2.15-3L2.15-3 2.15-30Q2.15-31.35 2.75-32.83 3.35-34.3 4.35-35.58 5.35-36.85 6.5-37.5L6.5-37.5 21.65-46.25ZM39-27L39-27 47.65-32Q49.35-33 50.65-32.25 51.95-31.5 51.95-29.5L51.95-29.5 51.95-24.5 47.65-22 47.65-27 39-22 39-3 47.65-8 47.65-13 51.95-15.5 51.95-10.5Q51.95-9.2 51.35-7.7 50.75-6.2 49.77-4.93 48.8-3.65 47.65-3L47.65-3 39 2Q37.25 3 35.95 2.25 34.65 1.5 34.65-0.5L34.65-0.5 34.65-19.5Q34.65-20.85 35.25-22.33 35.85-23.8 36.85-25.08 37.85-26.35 39-27ZM47.65-18L51.95-15.5 47.65-13 43.3-15.5 47.65-18ZM43.3-15.5L47.65-13 47.65-8 43.3-10.5 43.3-15.5ZM43.3-10.5L47.65-8 39-3 34.65-5.5 43.3-10.5ZM43.3-29.5L47.65-27 47.65-22 43.3-24.5 43.3-29.5ZM46.35-34.75L50.65-32.25Q49.35-33 47.65-32L47.65-32 39-27Q37.85-26.35 36.85-25.08 35.85-23.8 35.25-22.33 34.65-20.85 34.65-19.5L34.65-19.5 34.65-0.5Q34.65 1.5 35.95 2.25L35.95 2.25 31.6-0.25Q30.3-1 30.3-3L30.3-3 30.3-22Q30.3-23.35 30.9-24.83 31.5-26.3 32.5-27.58 33.5-28.85 34.65-29.5L34.65-29.5 43.3-34.5Q45.05-35.5 46.35-34.75L46.35-34.75ZM69.3-29.5L69.3-29.5 73.65-32Q75.34-33 76.65-32.25 77.95-31.5 77.95-29.5L77.95-29.5 77.95-7.5 73.65-5 73.65-27 65-22 65 0 60.65 2.5 60.65-37.5 65-40 65-22Q65-23.35 65.59-24.83 66.2-26.3 67.17-27.58 68.15-28.85 69.3-29.5ZM69.3-29.5L73.65-27 73.65-5 69.3-7.5 69.3-29.5ZM72.34-34.75L76.65-32.25Q75.34-33 73.65-32L73.65-32 69.3-29.5Q68.15-28.85 67.17-27.58 66.2-26.3 65.59-24.83 65-23.35 65-22L65-22 60.65-24.5Q60.65-25.85 61.25-27.33 61.85-28.8 62.85-30.08 63.85-31.35 65-32L65-32 69.3-34.5Q71.05-35.5 72.34-34.75L72.34-34.75ZM60.65-42.5L65-40 60.65-37.5 56.3-40 60.65-42.5ZM56.3-40L60.65-37.5 60.65 2.5 56.3 0 56.3-40ZM90.99-27L90.99-27 99.64-32Q101.34-33 102.64-32.25 103.94-31.5 103.94-29.5L103.94-29.5 103.94-10.5Q103.94-9.2 103.34-7.7 102.74-6.2 101.77-4.93 100.79-3.65 99.64-3L99.64-3 90.99 2Q89.24 3 87.94 2.25 86.64 1.5 86.64-0.5L86.64-0.5 86.64-19.5Q86.64-20.85 87.24-22.33 87.84-23.8 88.84-25.08 89.84-26.35 90.99-27ZM90.99-22L90.99-3 99.64-8 99.64-27 90.99-22ZM95.29-29.5L99.64-27 99.64-8 95.29-10.5 95.29-29.5ZM95.29-10.5L99.64-8 90.99-3 86.64-5.5 95.29-10.5ZM98.34-34.75L102.64-32.25Q101.34-33 99.64-32L99.64-32 90.99-27Q89.84-26.35 88.84-25.08 87.84-23.8 87.24-22.33 86.64-20.85 86.64-19.5L86.64-19.5 86.64-0.5Q86.64 1.5 87.94 2.25L87.94 2.25 83.59-0.25Q82.29-1 82.29-3L82.29-3 82.29-22Q82.29-23.35 82.89-24.83 83.49-26.3 84.49-27.58 85.49-28.85 86.64-29.5L86.64-29.5 95.29-34.5Q97.04-35.5 98.34-34.75L98.34-34.75ZM112.64-34.5L128.24-43.5Q129.94-44.5 131.24-43.75 132.54-43 132.54-41L132.54-41 132.54-14Q132.54-12.65 131.94-11.18 131.34-9.7 130.37-8.43 129.39-7.15 128.24-6.5L128.24-6.5 121.29-2.5Q119.59-1.5 118.29-2.25 116.99-3 116.99-5L116.99-5 128.24-11.5 128.24-38.5 116.99-32 116.99 0 112.64 2.5 112.64-34.5ZM123.89-41L128.24-38.5 128.24-11.5 123.89-14 123.89-41ZM123.89-14L128.24-11.5 116.99-5 112.64-7.5 123.89-14ZM112.64-7.5L116.99-5Q116.99-3 118.29-2.25L118.29-2.25 113.94-4.75Q112.64-5.5 112.64-7.5L112.64-7.5ZM126.94-46.25L131.24-43.75Q129.94-44.5 128.24-43.5L128.24-43.5 112.64-34.5 108.29-37 123.89-46Q125.59-47 126.94-46.25L126.94-46.25ZM108.29-37L112.64-34.5 112.64 2.5 108.29 0 108.29-37ZM141.24-34.5L156.84-43.5Q158.54-44.5 159.84-43.75 161.14-43 161.14-41L161.14-41 161.14-14Q161.14-12.65 160.54-11.18 159.94-9.7 158.96-8.43 157.99-7.15 156.84-6.5L156.84-6.5 149.89-2.5Q148.19-1.5 146.89-2.25 145.59-3 145.59-5L145.59-5 156.84-11.5 156.84-38.5 145.59-32 145.59 0 141.24 2.5 141.24-34.5ZM152.49-41L156.84-38.5 156.84-11.5 152.49-14 152.49-41ZM152.49-14L156.84-11.5 145.59-5 141.24-7.5 152.49-14ZM141.24-7.5L145.59-5Q145.59-3 146.89-2.25L146.89-2.25 142.54-4.75Q141.24-5.5 141.24-7.5L141.24-7.5ZM155.54-46.25L159.84-43.75Q158.54-44.5 156.84-43.5L156.84-43.5 141.24-34.5 136.89-37 152.49-46Q154.19-47 155.54-46.25L155.54-46.25ZM136.89-37L141.24-34.5 141.24 2.5 136.89 0 136.89-37ZM169.84-32.5L180.64-38.75Q182.39-39.75 183.69-39 184.99-38.25 184.99-36.25L184.99-36.25 184.99-11.25 191.49-15 191.49-45 195.84-47.5 195.84-12.5 184.99-6.25Q183.29-5.25 181.96-6 180.64-6.75 180.64-8.75L180.64-8.75 180.64-33.75 174.19-30 174.19 0 169.84 2.5 169.84-32.5ZM191.49-50L195.84-47.5 191.49-45 187.14-47.5 191.49-50ZM187.14-47.5L191.49-45 191.49-15 187.14-17.5 187.14-47.5ZM187.14-17.5L191.49-15 184.99-11.25 180.64-13.75 187.14-17.5ZM176.34-36.25L180.64-33.75 180.64-8.75Q180.64-6.75 181.94-6L181.94-6 177.64-8.5Q176.34-9.25 176.34-11.25L176.34-11.25 176.34-36.25ZM179.34-41.5L183.69-39Q182.39-39.75 180.64-38.75L180.64-38.75 169.84-32.5 165.49-35 176.34-41.25Q178.03-42.25 179.34-41.5L179.34-41.5ZM165.49-35L169.84-32.5 169.84 2.5 165.49 0 165.49-35ZM219.63-21.25L208.83-15Q207.08-14 205.78-14.75 204.48-15.5 204.48-17.5L204.48-17.5 204.48-29.5Q204.48-30.85 205.08-32.33 205.68-33.8 206.68-35.08 207.68-36.35 208.83-37L208.83-37 219.63-43.25Q221.33-44.25 222.66-43.5 223.98-42.75 223.98-40.75L223.98-40.75 223.98-33.75 219.63-31.25 219.63-38.25 208.83-32 208.83-20 219.63-26.25Q221.33-27.25 222.66-26.5 223.98-25.75 223.98-23.75L223.98-23.75 223.98-11.75Q223.98-10.45 223.36-8.95 222.73-7.45 221.76-6.18 220.78-4.9 219.63-4.25L219.63-4.25 208.83 2Q207.08 3 205.78 2.25 204.48 1.5 204.48-0.5L204.48-0.5 204.48-5.5 208.83-8 208.83-3 219.63-9.25 219.63-21.25ZM215.28-23.75L219.63-21.25 219.63-9.25 215.28-11.75 215.28-23.75ZM215.28-11.75L219.63-9.25 208.83-3 204.48-5.5 215.28-11.75ZM215.28-40.75L219.63-38.25 219.63-31.25 215.28-33.75 215.28-40.75ZM204.48-10.5L208.83-8 204.48-5.5 200.13-8 204.48-10.5ZM200.13-8L204.48-5.5 204.48-0.5Q204.48 1.5 205.78 2.25L205.78 2.25 201.43-0.25Q200.13-1 200.13-3L200.13-3 200.13-8ZM218.33-29L222.68-26.5Q221.33-27.25 219.63-26.25L219.63-26.25 208.83-20 204.48-22.5 215.28-28.75Q217.03-29.75 218.33-29L218.33-29ZM218.33-46L222.68-43.5Q221.33-44.25 219.63-43.25L219.63-43.25 208.83-37Q207.68-36.35 206.68-35.08 205.68-33.8 205.08-32.33 204.48-30.85 204.48-29.5L204.48-29.5 204.48-17.5Q204.48-15.5 205.78-14.75L205.78-14.75 201.43-17.25Q200.13-18 200.13-20L200.13-20 200.13-32Q200.13-33.35 200.73-34.83 201.33-36.3 202.33-37.58 203.33-38.85 204.48-39.5L204.48-39.5 215.28-45.75Q217.03-46.75 218.33-46L218.33-46Z" fill="black" stroke-width="8" stroke="black" stroke-linejoin="round"></path></g></svg></g></svg></g></svg></g></svg></g></svg></g></svg></g></svg></g></mask><g transform="matrix(1,0,0,1,44.16,85.7891742861872)"><svg viewBox="0 0 307.2 75.62165142762558" height="75.62165142762558" width="307.2"><g><svg viewBox="0 0 307.2 75.62165142762558" height="75.62165142762558" width="307.2"><g><svg viewBox="0 0 307.2 75.62165142762558" height="75.62165142762558" width="307.2"><g><svg viewBox="0 0 307.2 75.62165142762558" height="75.62165142762558" width="307.2"><g id="textblocktransform"><svg viewBox="0 0 307.2 75.62165142762558" height="75.62165142762558" width="307.2" id="textblock"><g><svg viewBox="0 0 307.2 75.62165142762558" height="75.62165142762558" width="307.2"><g transform="matrix(1,0,0,1,0,0)"><svg width="307.2" viewBox="-2.35 -54.5 247.0410529963813 61.57142857142857" height="75.62165142762558" data-palette-color="url(#3f26c264-47a9-453b-ab5b-3c4e6e2d6b7b)"><g transform="matrix(1,0,0,1,0,0)"><g><svg width="7.026570622738311" viewBox="-1.3199999999999998 -12.53 17.52 17.490000000000002" height="7.011468811736896" data-palette-color="url(#3f26c264-47a9-453b-ab5b-3c4e6e2d6b7b)" id="scriptelement" x="231.70922768501214" y="-8.47427440586845"></svg></g></g><g class="wordmark-text-0" data-fill-palette-color="primary" id="text-0"></g></svg></g></svg></g></svg></g></svg></g></svg></g></svg></g></svg></g><g mask="url(#b15668bc-4289-449b-b653-594a7801ad8c)"><g transform="matrix(2.7214206437291897, 0, 0, 2.7214206437291897, 77.47320754716979, 1)"><svg xmlns="http://www.w3.org/2000/svg" xmlns:xlink="http://www.w3.org/1999/xlink" version="1.1" x="0" y="0" viewBox="5.8 5 88.4 90.1" enable-background="new 0 0 100 100" xml:space="preserve" height="90.1" width="88.4" class="icon-none" data-fill-palette-color="accent" id="none"></svg></g></g></svg></g><defs></defs><mask id="f3c4ba52-a1ab-4d44-8b8e-12678f2b591e"><g id="SvgjsG1170"><svg viewBox="0 0 395.52 247.2" height="247.2" width="395.52"><g><svg></svg></g><g><svg viewBox="0 0 395.52 247.2" height="247.2" width="395.52"><mask id="SvgjsMask1169"><rect width="640" height="400" fill="black"></rect><g transform="matrix(1,0,0,1,44.16,85.7891742861872)"><svg viewBox="0 0 307.2 75.62165142762558" height="75.62165142762558" width="307.2"><g><svg viewBox="0 0 307.2 75.62165142762558" height="75.62165142762558" width="307.2"><g><svg viewBox="0 0 307.2 75.62165142762558" height="75.62165142762558" width="307.2"><g><svg viewBox="0 0 307.2 75.62165142762558" height="75.62165142762558" width="307.2"><g id="SvgjsG1168"><svg viewBox="0 0 307.2 75.62165142762558" height="75.62165142762558" width="307.2" id="SvgjsSvg1167"><g><svg viewBox="0 0 307.2 75.62165142762558" height="75.62165142762558" width="307.2"><g transform="matrix(1,0,0,1,0,0)"><svg width="307.2" viewBox="-2.35 -54.5 247.0410529963813 61.57142857142857" height="75.62165142762558" data-palette-color="url(#3f26c264-47a9-453b-ab5b-3c4e6e2d6b7b)"><g transform="matrix(1,0,0,1,0,0)"><g><svg width="7.026570622738311" viewBox="-1.3199999999999998 -12.53 17.52 17.490000000000002" height="7.011468811736896" data-palette-color="url(#3f26c264-47a9-453b-ab5b-3c4e6e2d6b7b)" id="SvgjsSvg1166" x="231.70922768501214" y="-8.47427440586845"><path d="M7.44 0.46L7.44 0.46Q5.68 0.46 4.43-0.79 3.18-2.04 3.18-3.8L3.18-3.8Q3.18-5.54 4.43-6.78 5.68-8.03 7.44-8.03L7.44-8.03Q9.14-8.03 10.42-6.78 11.7-5.54 11.7-3.8L11.7-3.8Q11.7-2.63 11.11-1.66 10.51-0.69 9.55-0.12 8.59 0.46 7.44 0.46Z" opacity="1" transform="matrix(1,0,0,1,0,0)" fill="black" class="undefined-123" id="SvgjsPath1165" stroke-width="8" stroke="black" stroke-linejoin="round"></path></svg></g></g><path d="M230.254-4.969C230.254-7.713 232.478-9.937 235.223-9.937 237.967-9.937 240.191-7.713 240.191-4.969 240.191-2.224 237.967 0 235.223 0 232.478 0 230.254-2.224 230.254-4.969ZM235.223-0.4C237.746-0.4 239.791-2.445 239.791-4.969 239.791-7.492 237.746-9.537 235.223-9.537 232.699-9.537 230.654-7.492 230.654-4.969 230.654-2.445 232.699-0.4 235.223-0.4Z" fill="black" id="SvgjsPath1164" stroke-width="8" stroke="black" stroke-linejoin="round"></path><g class="wordmark-text-0" data-fill-palette-color="primary" id="SvgjsG1163"><path d="M6.5-0.5L6.5-27.5Q6.5-28.85 7.1-30.33 7.7-31.8 8.7-33.08 9.7-34.35 10.85-35L10.85-35 26-43.75 26-38.75 10.85-30 10.85-19 26-27.75 26-22.75 10.85-14 10.85-3 26-11.75 26-6.75 10.85 2Q9.1 3 7.8 2.25 6.5 1.5 6.5-0.5L6.5-0.5ZM21.65-14.25L26-11.75 10.85-3 6.5-5.5 21.65-14.25ZM21.65-30.25L26-27.75 10.85-19 6.5-21.5 21.65-30.25ZM21.65-46.25L26-43.75 10.85-35Q9.7-34.35 8.7-33.08 7.7-31.8 7.1-30.33 6.5-28.85 6.5-27.5L6.5-27.5 6.5-0.5Q6.5 1.5 7.8 2.25L7.8 2.25 3.45-0.25Q2.15-1 2.15-3L2.15-3 2.15-30Q2.15-31.35 2.75-32.83 3.35-34.3 4.35-35.58 5.35-36.85 6.5-37.5L6.5-37.5 21.65-46.25ZM39-27L39-27 47.65-32Q49.35-33 50.65-32.25 51.95-31.5 51.95-29.5L51.95-29.5 51.95-24.5 47.65-22 47.65-27 39-22 39-3 47.65-8 47.65-13 51.95-15.5 51.95-10.5Q51.95-9.2 51.35-7.7 50.75-6.2 49.77-4.93 48.8-3.65 47.65-3L47.65-3 39 2Q37.25 3 35.95 2.25 34.65 1.5 34.65-0.5L34.65-0.5 34.65-19.5Q34.65-20.85 35.25-22.33 35.85-23.8 36.85-25.08 37.85-26.35 39-27ZM47.65-18L51.95-15.5 47.65-13 43.3-15.5 47.65-18ZM43.3-15.5L47.65-13 47.65-8 43.3-10.5 43.3-15.5ZM43.3-10.5L47.65-8 39-3 34.65-5.5 43.3-10.5ZM43.3-29.5L47.65-27 47.65-22 43.3-24.5 43.3-29.5ZM46.35-34.75L50.65-32.25Q49.35-33 47.65-32L47.65-32 39-27Q37.85-26.35 36.85-25.08 35.85-23.8 35.25-22.33 34.65-20.85 34.65-19.5L34.65-19.5 34.65-0.5Q34.65 1.5 35.95 2.25L35.95 2.25 31.6-0.25Q30.3-1 30.3-3L30.3-3 30.3-22Q30.3-23.35 30.9-24.83 31.5-26.3 32.5-27.58 33.5-28.85 34.65-29.5L34.65-29.5 43.3-34.5Q45.05-35.5 46.35-34.75L46.35-34.75ZM69.3-29.5L69.3-29.5 73.65-32Q75.34-33 76.65-32.25 77.95-31.5 77.95-29.5L77.95-29.5 77.95-7.5 73.65-5 73.65-27 65-22 65 0 60.65 2.5 60.65-37.5 65-40 65-22Q65-23.35 65.59-24.83 66.2-26.3 67.17-27.58 68.15-28.85 69.3-29.5ZM69.3-29.5L73.65-27 73.65-5 69.3-7.5 69.3-29.5ZM72.34-34.75L76.65-32.25Q75.34-33 73.65-32L73.65-32 69.3-29.5Q68.15-28.85 67.17-27.58 66.2-26.3 65.59-24.83 65-23.35 65-22L65-22 60.65-24.5Q60.65-25.85 61.25-27.33 61.85-28.8 62.85-30.08 63.85-31.35 65-32L65-32 69.3-34.5Q71.05-35.5 72.34-34.75L72.34-34.75ZM60.65-42.5L65-40 60.65-37.5 56.3-40 60.65-42.5ZM56.3-40L60.65-37.5 60.65 2.5 56.3 0 56.3-40ZM90.99-27L90.99-27 99.64-32Q101.34-33 102.64-32.25 103.94-31.5 103.94-29.5L103.94-29.5 103.94-10.5Q103.94-9.2 103.34-7.7 102.74-6.2 101.77-4.93 100.79-3.65 99.64-3L99.64-3 90.99 2Q89.24 3 87.94 2.25 86.64 1.5 86.64-0.5L86.64-0.5 86.64-19.5Q86.64-20.85 87.24-22.33 87.84-23.8 88.84-25.08 89.84-26.35 90.99-27ZM90.99-22L90.99-3 99.64-8 99.64-27 90.99-22ZM95.29-29.5L99.64-27 99.64-8 95.29-10.5 95.29-29.5ZM95.29-10.5L99.64-8 90.99-3 86.64-5.5 95.29-10.5ZM98.34-34.75L102.64-32.25Q101.34-33 99.64-32L99.64-32 90.99-27Q89.84-26.35 88.84-25.08 87.84-23.8 87.24-22.33 86.64-20.85 86.64-19.5L86.64-19.5 86.64-0.5Q86.64 1.5 87.94 2.25L87.94 2.25 83.59-0.25Q82.29-1 82.29-3L82.29-3 82.29-22Q82.29-23.35 82.89-24.83 83.49-26.3 84.49-27.58 85.49-28.85 86.64-29.5L86.64-29.5 95.29-34.5Q97.04-35.5 98.34-34.75L98.34-34.75ZM112.64-34.5L128.24-43.5Q129.94-44.5 131.24-43.75 132.54-43 132.54-41L132.54-41 132.54-14Q132.54-12.65 131.94-11.18 131.34-9.7 130.37-8.43 129.39-7.15 128.24-6.5L128.24-6.5 121.29-2.5Q119.59-1.5 118.29-2.25 116.99-3 116.99-5L116.99-5 128.24-11.5 128.24-38.5 116.99-32 116.99 0 112.64 2.5 112.64-34.5ZM123.89-41L128.24-38.5 128.24-11.5 123.89-14 123.89-41ZM123.89-14L128.24-11.5 116.99-5 112.64-7.5 123.89-14ZM112.64-7.5L116.99-5Q116.99-3 118.29-2.25L118.29-2.25 113.94-4.75Q112.64-5.5 112.64-7.5L112.64-7.5ZM126.94-46.25L131.24-43.75Q129.94-44.5 128.24-43.5L128.24-43.5 112.64-34.5 108.29-37 123.89-46Q125.59-47 126.94-46.25L126.94-46.25ZM108.29-37L112.64-34.5 112.64 2.5 108.29 0 108.29-37ZM141.24-34.5L156.84-43.5Q158.54-44.5 159.84-43.75 161.14-43 161.14-41L161.14-41 161.14-14Q161.14-12.65 160.54-11.18 159.94-9.7 158.96-8.43 157.99-7.15 156.84-6.5L156.84-6.5 149.89-2.5Q148.19-1.5 146.89-2.25 145.59-3 145.59-5L145.59-5 156.84-11.5 156.84-38.5 145.59-32 145.59 0 141.24 2.5 141.24-34.5ZM152.49-41L156.84-38.5 156.84-11.5 152.49-14 152.49-41ZM152.49-14L156.84-11.5 145.59-5 141.24-7.5 152.49-14ZM141.24-7.5L145.59-5Q145.59-3 146.89-2.25L146.89-2.25 142.54-4.75Q141.24-5.5 141.24-7.5L141.24-7.5ZM155.54-46.25L159.84-43.75Q158.54-44.5 156.84-43.5L156.84-43.5 141.24-34.5 136.89-37 152.49-46Q154.19-47 155.54-46.25L155.54-46.25ZM136.89-37L141.24-34.5 141.24 2.5 136.89 0 136.89-37ZM169.84-32.5L180.64-38.75Q182.39-39.75 183.69-39 184.99-38.25 184.99-36.25L184.99-36.25 184.99-11.25 191.49-15 191.49-45 195.84-47.5 195.84-12.5 184.99-6.25Q183.29-5.25 181.96-6 180.64-6.75 180.64-8.75L180.64-8.75 180.64-33.75 174.19-30 174.19 0 169.84 2.5 169.84-32.5ZM191.49-50L195.84-47.5 191.49-45 187.14-47.5 191.49-50ZM187.14-47.5L191.49-45 191.49-15 187.14-17.5 187.14-47.5ZM187.14-17.5L191.49-15 184.99-11.25 180.64-13.75 187.14-17.5ZM176.34-36.25L180.64-33.75 180.64-8.75Q180.64-6.75 181.94-6L181.94-6 177.64-8.5Q176.34-9.25 176.34-11.25L176.34-11.25 176.34-36.25ZM179.34-41.5L183.69-39Q182.39-39.75 180.64-38.75L180.64-38.75 169.84-32.5 165.49-35 176.34-41.25Q178.03-42.25 179.34-41.5L179.34-41.5ZM165.49-35L169.84-32.5 169.84 2.5 165.49 0 165.49-35ZM219.63-21.25L208.83-15Q207.08-14 205.78-14.75 204.48-15.5 204.48-17.5L204.48-17.5 204.48-29.5Q204.48-30.85 205.08-32.33 205.68-33.8 206.68-35.08 207.68-36.35 208.83-37L208.83-37 219.63-43.25Q221.33-44.25 222.66-43.5 223.98-42.75 223.98-40.75L223.98-40.75 223.98-33.75 219.63-31.25 219.63-38.25 208.83-32 208.83-20 219.63-26.25Q221.33-27.25 222.66-26.5 223.98-25.75 223.98-23.75L223.98-23.75 223.98-11.75Q223.98-10.45 223.36-8.95 222.73-7.45 221.76-6.18 220.78-4.9 219.63-4.25L219.63-4.25 208.83 2Q207.08 3 205.78 2.25 204.48 1.5 204.48-0.5L204.48-0.5 204.48-5.5 208.83-8 208.83-3 219.63-9.25 219.63-21.25ZM215.28-23.75L219.63-21.25 219.63-9.25 215.28-11.75 215.28-23.75ZM215.28-11.75L219.63-9.25 208.83-3 204.48-5.5 215.28-11.75ZM215.28-40.75L219.63-38.25 219.63-31.25 215.28-33.75 215.28-40.75ZM204.48-10.5L208.83-8 204.48-5.5 200.13-8 204.48-10.5ZM200.13-8L204.48-5.5 204.48-0.5Q204.48 1.5 205.78 2.25L205.78 2.25 201.43-0.25Q200.13-1 200.13-3L200.13-3 200.13-8ZM218.33-29L222.68-26.5Q221.33-27.25 219.63-26.25L219.63-26.25 208.83-20 204.48-22.5 215.28-28.75Q217.03-29.75 218.33-29L218.33-29ZM218.33-46L222.68-43.5Q221.33-44.25 219.63-43.25L219.63-43.25 208.83-37Q207.68-36.35 206.68-35.08 205.68-33.8 205.08-32.33 204.48-30.85 204.48-29.5L204.48-29.5 204.48-17.5Q204.48-15.5 205.78-14.75L205.78-14.75 201.43-17.25Q200.13-18 200.13-20L200.13-20 200.13-32Q200.13-33.35 200.73-34.83 201.33-36.3 202.33-37.58 203.33-38.85 204.48-39.5L204.48-39.5 215.28-45.75Q217.03-46.75 218.33-46L218.33-46Z" fill="black" stroke-width="8" stroke="black" stroke-linejoin="round"></path></g></svg></g></svg></g></svg></g></svg></g></svg></g></svg></g></svg></g></mask><g transform="matrix(1,0,0,1,44.16,85.7891742861872)"><svg viewBox="0 0 307.2 75.62165142762558" height="75.62165142762558" width="307.2"><g><svg viewBox="0 0 307.2 75.62165142762558" height="75.62165142762558" width="307.2"><g><svg viewBox="0 0 307.2 75.62165142762558" height="75.62165142762558" width="307.2"><g><svg viewBox="0 0 307.2 75.62165142762558" height="75.62165142762558" width="307.2"><g id="SvgjsG1162"><svg viewBox="0 0 307.2 75.62165142762558" height="75.62165142762558" width="307.2" id="SvgjsSvg1161"><g><svg viewBox="0 0 307.2 75.62165142762558" height="75.62165142762558" width="307.2"><g transform="matrix(1,0,0,1,0,0)"><svg width="307.2" viewBox="-2.35 -54.5 247.0410529963813 61.57142857142857" height="75.62165142762558" data-palette-color="url(#3f26c264-47a9-453b-ab5b-3c4e6e2d6b7b)"><g transform="matrix(1,0,0,1,0,0)"><g><svg width="7.026570622738311" viewBox="-1.3199999999999998 -12.53 17.52 17.490000000000002" height="7.011468811736896" data-palette-color="url(#3f26c264-47a9-453b-ab5b-3c4e6e2d6b7b)" id="SvgjsSvg1160" x="231.70922768501214" y="-8.47427440586845"><path d="M7.44 0.46L7.44 0.46Q5.68 0.46 4.43-0.79 3.18-2.04 3.18-3.8L3.18-3.8Q3.18-5.54 4.43-6.78 5.68-8.03 7.44-8.03L7.44-8.03Q9.14-8.03 10.42-6.78 11.7-5.54 11.7-3.8L11.7-3.8Q11.7-2.63 11.11-1.66 10.51-0.69 9.55-0.12 8.59 0.46 7.44 0.46Z" opacity="1" transform="matrix(1,0,0,1,0,0)" fill="white" class="undefined-123" id="SvgjsPath1159"></path></svg></g></g><path d="M230.254-4.969C230.254-7.713 232.478-9.937 235.223-9.937 237.967-9.937 240.191-7.713 240.191-4.969 240.191-2.224 237.967 0 235.223 0 232.478 0 230.254-2.224 230.254-4.969ZM235.223-0.4C237.746-0.4 239.791-2.445 239.791-4.969 239.791-7.492 237.746-9.537 235.223-9.537 232.699-9.537 230.654-7.492 230.654-4.969 230.654-2.445 232.699-0.4 235.223-0.4Z" fill="white" id="SvgjsPath1158"></path><g class="wordmark-text-0" data-fill-palette-color="primary" id="SvgjsG1157"><path d="M6.5-0.5L6.5-27.5Q6.5-28.85 7.1-30.33 7.7-31.8 8.7-33.08 9.7-34.35 10.85-35L10.85-35 26-43.75 26-38.75 10.85-30 10.85-19 26-27.75 26-22.75 10.85-14 10.85-3 26-11.75 26-6.75 10.85 2Q9.1 3 7.8 2.25 6.5 1.5 6.5-0.5L6.5-0.5ZM21.65-14.25L26-11.75 10.85-3 6.5-5.5 21.65-14.25ZM21.65-30.25L26-27.75 10.85-19 6.5-21.5 21.65-30.25ZM21.65-46.25L26-43.75 10.85-35Q9.7-34.35 8.7-33.08 7.7-31.8 7.1-30.33 6.5-28.85 6.5-27.5L6.5-27.5 6.5-0.5Q6.5 1.5 7.8 2.25L7.8 2.25 3.45-0.25Q2.15-1 2.15-3L2.15-3 2.15-30Q2.15-31.35 2.75-32.83 3.35-34.3 4.35-35.58 5.35-36.85 6.5-37.5L6.5-37.5 21.65-46.25ZM39-27L39-27 47.65-32Q49.35-33 50.65-32.25 51.95-31.5 51.95-29.5L51.95-29.5 51.95-24.5 47.65-22 47.65-27 39-22 39-3 47.65-8 47.65-13 51.95-15.5 51.95-10.5Q51.95-9.2 51.35-7.7 50.75-6.2 49.77-4.93 48.8-3.65 47.65-3L47.65-3 39 2Q37.25 3 35.95 2.25 34.65 1.5 34.65-0.5L34.65-0.5 34.65-19.5Q34.65-20.85 35.25-22.33 35.85-23.8 36.85-25.08 37.85-26.35 39-27ZM47.65-18L51.95-15.5 47.65-13 43.3-15.5 47.65-18ZM43.3-15.5L47.65-13 47.65-8 43.3-10.5 43.3-15.5ZM43.3-10.5L47.65-8 39-3 34.65-5.5 43.3-10.5ZM43.3-29.5L47.65-27 47.65-22 43.3-24.5 43.3-29.5ZM46.35-34.75L50.65-32.25Q49.35-33 47.65-32L47.65-32 39-27Q37.85-26.35 36.85-25.08 35.85-23.8 35.25-22.33 34.65-20.85 34.65-19.5L34.65-19.5 34.65-0.5Q34.65 1.5 35.95 2.25L35.95 2.25 31.6-0.25Q30.3-1 30.3-3L30.3-3 30.3-22Q30.3-23.35 30.9-24.83 31.5-26.3 32.5-27.58 33.5-28.85 34.65-29.5L34.65-29.5 43.3-34.5Q45.05-35.5 46.35-34.75L46.35-34.75ZM69.3-29.5L69.3-29.5 73.65-32Q75.34-33 76.65-32.25 77.95-31.5 77.95-29.5L77.95-29.5 77.95-7.5 73.65-5 73.65-27 65-22 65 0 60.65 2.5 60.65-37.5 65-40 65-22Q65-23.35 65.59-24.83 66.2-26.3 67.17-27.58 68.15-28.85 69.3-29.5ZM69.3-29.5L73.65-27 73.65-5 69.3-7.5 69.3-29.5ZM72.34-34.75L76.65-32.25Q75.34-33 73.65-32L73.65-32 69.3-29.5Q68.15-28.85 67.17-27.58 66.2-26.3 65.59-24.83 65-23.35 65-22L65-22 60.65-24.5Q60.65-25.85 61.25-27.33 61.85-28.8 62.85-30.08 63.85-31.35 65-32L65-32 69.3-34.5Q71.05-35.5 72.34-34.75L72.34-34.75ZM60.65-42.5L65-40 60.65-37.5 56.3-40 60.65-42.5ZM56.3-40L60.65-37.5 60.65 2.5 56.3 0 56.3-40ZM90.99-27L90.99-27 99.64-32Q101.34-33 102.64-32.25 103.94-31.5 103.94-29.5L103.94-29.5 103.94-10.5Q103.94-9.2 103.34-7.7 102.74-6.2 101.77-4.93 100.79-3.65 99.64-3L99.64-3 90.99 2Q89.24 3 87.94 2.25 86.64 1.5 86.64-0.5L86.64-0.5 86.64-19.5Q86.64-20.85 87.24-22.33 87.84-23.8 88.84-25.08 89.84-26.35 90.99-27ZM90.99-22L90.99-3 99.64-8 99.64-27 90.99-22ZM95.29-29.5L99.64-27 99.64-8 95.29-10.5 95.29-29.5ZM95.29-10.5L99.64-8 90.99-3 86.64-5.5 95.29-10.5ZM98.34-34.75L102.64-32.25Q101.34-33 99.64-32L99.64-32 90.99-27Q89.84-26.35 88.84-25.08 87.84-23.8 87.24-22.33 86.64-20.85 86.64-19.5L86.64-19.5 86.64-0.5Q86.64 1.5 87.94 2.25L87.94 2.25 83.59-0.25Q82.29-1 82.29-3L82.29-3 82.29-22Q82.29-23.35 82.89-24.83 83.49-26.3 84.49-27.58 85.49-28.85 86.64-29.5L86.64-29.5 95.29-34.5Q97.04-35.5 98.34-34.75L98.34-34.75ZM112.64-34.5L128.24-43.5Q129.94-44.5 131.24-43.75 132.54-43 132.54-41L132.54-41 132.54-14Q132.54-12.65 131.94-11.18 131.34-9.7 130.37-8.43 129.39-7.15 128.24-6.5L128.24-6.5 121.29-2.5Q119.59-1.5 118.29-2.25 116.99-3 116.99-5L116.99-5 128.24-11.5 128.24-38.5 116.99-32 116.99 0 112.64 2.5 112.64-34.5ZM123.89-41L128.24-38.5 128.24-11.5 123.89-14 123.89-41ZM123.89-14L128.24-11.5 116.99-5 112.64-7.5 123.89-14ZM112.64-7.5L116.99-5Q116.99-3 118.29-2.25L118.29-2.25 113.94-4.75Q112.64-5.5 112.64-7.5L112.64-7.5ZM126.94-46.25L131.24-43.75Q129.94-44.5 128.24-43.5L128.24-43.5 112.64-34.5 108.29-37 123.89-46Q125.59-47 126.94-46.25L126.94-46.25ZM108.29-37L112.64-34.5 112.64 2.5 108.29 0 108.29-37ZM141.24-34.5L156.84-43.5Q158.54-44.5 159.84-43.75 161.14-43 161.14-41L161.14-41 161.14-14Q161.14-12.65 160.54-11.18 159.94-9.7 158.96-8.43 157.99-7.15 156.84-6.5L156.84-6.5 149.89-2.5Q148.19-1.5 146.89-2.25 145.59-3 145.59-5L145.59-5 156.84-11.5 156.84-38.5 145.59-32 145.59 0 141.24 2.5 141.24-34.5ZM152.49-41L156.84-38.5 156.84-11.5 152.49-14 152.49-41ZM152.49-14L156.84-11.5 145.59-5 141.24-7.5 152.49-14ZM141.24-7.5L145.59-5Q145.59-3 146.89-2.25L146.89-2.25 142.54-4.75Q141.24-5.5 141.24-7.5L141.24-7.5ZM155.54-46.25L159.84-43.75Q158.54-44.5 156.84-43.5L156.84-43.5 141.24-34.5 136.89-37 152.49-46Q154.19-47 155.54-46.25L155.54-46.25ZM136.89-37L141.24-34.5 141.24 2.5 136.89 0 136.89-37ZM169.84-32.5L180.64-38.75Q182.39-39.75 183.69-39 184.99-38.25 184.99-36.25L184.99-36.25 184.99-11.25 191.49-15 191.49-45 195.84-47.5 195.84-12.5 184.99-6.25Q183.29-5.25 181.96-6 180.64-6.75 180.64-8.75L180.64-8.75 180.64-33.75 174.19-30 174.19 0 169.84 2.5 169.84-32.5ZM191.49-50L195.84-47.5 191.49-45 187.14-47.5 191.49-50ZM187.14-47.5L191.49-45 191.49-15 187.14-17.5 187.14-47.5ZM187.14-17.5L191.49-15 184.99-11.25 180.64-13.75 187.14-17.5ZM176.34-36.25L180.64-33.75 180.64-8.75Q180.64-6.75 181.94-6L181.94-6 177.64-8.5Q176.34-9.25 176.34-11.25L176.34-11.25 176.34-36.25ZM179.34-41.5L183.69-39Q182.39-39.75 180.64-38.75L180.64-38.75 169.84-32.5 165.49-35 176.34-41.25Q178.03-42.25 179.34-41.5L179.34-41.5ZM165.49-35L169.84-32.5 169.84 2.5 165.49 0 165.49-35ZM219.63-21.25L208.83-15Q207.08-14 205.78-14.75 204.48-15.5 204.48-17.5L204.48-17.5 204.48-29.5Q204.48-30.85 205.08-32.33 205.68-33.8 206.68-35.08 207.68-36.35 208.83-37L208.83-37 219.63-43.25Q221.33-44.25 222.66-43.5 223.98-42.75 223.98-40.75L223.98-40.75 223.98-33.75 219.63-31.25 219.63-38.25 208.83-32 208.83-20 219.63-26.25Q221.33-27.25 222.66-26.5 223.98-25.75 223.98-23.75L223.98-23.75 223.98-11.75Q223.98-10.45 223.36-8.95 222.73-7.45 221.76-6.18 220.78-4.9 219.63-4.25L219.63-4.25 208.83 2Q207.08 3 205.78 2.25 204.48 1.5 204.48-0.5L204.48-0.5 204.48-5.5 208.83-8 208.83-3 219.63-9.25 219.63-21.25ZM215.28-23.75L219.63-21.25 219.63-9.25 215.28-11.75 215.28-23.75ZM215.28-11.75L219.63-9.25 208.83-3 204.48-5.5 215.28-11.75ZM215.28-40.75L219.63-38.25 219.63-31.25 215.28-33.75 215.28-40.75ZM204.48-10.5L208.83-8 204.48-5.5 200.13-8 204.48-10.5ZM200.13-8L204.48-5.5 204.48-0.5Q204.48 1.5 205.78 2.25L205.78 2.25 201.43-0.25Q200.13-1 200.13-3L200.13-3 200.13-8ZM218.33-29L222.68-26.5Q221.33-27.25 219.63-26.25L219.63-26.25 208.83-20 204.48-22.5 215.28-28.75Q217.03-29.75 218.33-29L218.33-29ZM218.33-46L222.68-43.5Q221.33-44.25 219.63-43.25L219.63-43.25 208.83-37Q207.68-36.35 206.68-35.08 205.68-33.8 205.08-32.33 204.48-30.85 204.48-29.5L204.48-29.5 204.48-17.5Q204.48-15.5 205.78-14.75L205.78-14.75 201.43-17.25Q200.13-18 200.13-20L200.13-20 200.13-32Q200.13-33.35 200.73-34.83 201.33-36.3 202.33-37.58 203.33-38.85 204.48-39.5L204.48-39.5 215.28-45.75Q217.03-46.75 218.33-46L218.33-46Z" fill="white"></path></g></svg></g></svg></g></svg></g></svg></g></svg></g></svg></g></svg></g><g mask="url(#b15668bc-4289-449b-b653-594a7801ad8c)"><g transform="matrix(2.7214206437291897, 0, 0, 2.7214206437291897, 77.47320754716979, 1)"><svg xmlns="http://www.w3.org/2000/svg" xmlns:xlink="http://www.w3.org/1999/xlink" version="1.1" x="0" y="0" viewBox="5.8 5 88.4 90.1" enable-background="new 0 0 100 100" xml:space="preserve" height="90.1" width="88.4" class="icon-none" data-fill-palette-color="accent" id="SvgjsSvg1156"><g fill="black"><path d="M89.7 63.9C87.8 61.2 86 58.8 84.8 55.9 84.4 54.9 83.8 53.9 83.1 53.1 80.3 49.9 77.5 46.7 74.6 43.5 69.5 37.8 63.4 33.2 56.8 29.4 50.8 25.9 44.7 22.5 38.6 19.2 36.1 17.8 33.4 16.6 30.8 15.4 29.5 14.8 28 14.6 26.7 14.1 25.2 13.6 23.6 13.3 22.2 12.6 19.2 11 15.9 10.4 12.8 9.5 11.6 9.1 10.4 8.9 9.7 7.7 8.8 6.2 8.8 5.7 10.4 5.5 12.2 5.2 14.2 5 16 5.2 20 5.7 24 6.5 28 7.2 29 7.4 29.9 7.8 30.9 8.2 41.8 12.9 52.1 18.6 62.1 24.9 68.1 28.7 73.4 33.3 77.8 38.8 79.6 41.1 81.5 43.3 83.4 45.5 85.1 47.4 86.5 49.5 87.4 51.9 88.4 54.4 89.6 56.8 90.7 59.2 91.5 60.9 91 62.3 89.7 63.9" fill="black"></path><path d="M5.8 21.8C8.1 20.4 10.3 20 12.8 20.4 17.5 21.2 22.1 22.6 26.5 24.5 32.4 27 38.3 29.2 43.8 32.6 55 39.6 64.3 48.5 72.2 58.9 75.4 63.1 79.1 67 81.7 71.6 82.8 73.5 83.7 75.5 84.7 77.4 85.7 79.2 86.8 80.9 87.7 82.7 88.5 84.3 88.9 86.1 89.5 87.8 90 89.3 90.5 90.8 91.1 92.3 91.3 92.9 91.7 93.5 91 94.1S89.6 94.4 89.1 93.9C88.7 93.5 88.2 93.1 88.1 92.6 87.6 90 85.8 88.1 84.6 85.9 84.3 85.3 83.8 84.8 83.6 84.2 81.3 78.7 77.7 73.9 74 69.3 68.7 62.9 63.5 56.4 57.4 50.7 52.4 46 47.1 42 41.4 38.4 37 35.7 32.5 33.2 27.9 30.9 23.8 28.8 19.5 27 15.2 25.3 13.3 24.6 11.3 24.3 9.3 23.9 8 23.7 6.9 23.2 5.8 21.8" fill="black"></path><path d="M72.7 93.2C70.8 90.8 68.8 88.4 67.1 85.9 64.9 82.6 62.8 79.5 59.7 76.9 54.6 72.7 49.8 68.2 44.7 64S33.9 56.4 28 53.6C25.3 52.3 22.6 50.9 19.7 49.8 17.8 49.1 16 48.4 14.2 47.3 12.7 46.4 10.8 46.1 9.1 45.6 8.3 45.3 7.4 45.2 6.7 44.7 6.3 44.4 6 43.6 6 43 6 42.6 6.7 42 7.2 42 8.5 41.8 9.8 41.7 11.1 41.9 15.2 42.6 19.2 43.3 23 45.3 23.8 45.7 24.6 46.1 25.4 46.3 31.8 48 37 51.9 42.3 55.5 46.2 58.2 49.6 61.7 53.3 64.6 57.1 67.6 60.5 70.9 63.4 74.7 65.3 77.3 67.1 80.1 68.8 82.8 70 84.8 71.1 86.8 72.2 88.9 72.8 90.2 73.2 91.6 73.3 93 73 93 72.8 93.1 72.7 93.2" fill="black"></path><path d="M93.4 37.1C93 37.6 92.8 38 92.4 38.3 91.1 39.6 90.4 39.5 89.3 38 88.4 36.8 87.6 35.5 86.7 34.3 82.2 28.2 76 23.9 70 19.3 67.3 17.3 64.6 15.1 61.9 13.1 61.2 12.6 60.5 11.9 59.7 11.7 57.8 11.2 56.5 9.8 55 8.7 54.6 8.4 54.3 7.9 54.1 7.5 53.8 6.6 54.1 6 55 6 56.3 6 57.6 6 58.9 6.4 62.5 7.5 65.7 9.7 68.7 11.9 70.2 13 71.5 14.2 73 15.2 77.1 17.9 80.7 21.1 84.4 24.3 87.5 26.9 91.5 32.7 93.4 37.1" fill="black"></path><path d="M51.4 92.8C50.1 90.7 48.9 89.3 48.2 87.6 47 84.6 45.3 82.2 42.6 80.3 40.4 78.7 38.6 76.8 36.3 75.3 33.3 73.3 30 71.7 26.9 69.9 21.8 67 16 65.7 10.4 64.2 9.4 63.9 8.3 63.9 7.2 63.7 6.9 63.6 6.3 63.1 6.4 62.9 6.4 62.5 6.8 61.9 7.1 61.7 7.9 61.4 8.8 61.2 9.6 61.2 13.5 61.3 17.3 62.1 21.1 63.2 25.5 64.4 29.6 66.4 33.7 68.5 37.2 70.3 40.4 72.8 43.3 75.6 45.1 77.3 47.1 78.7 48.3 81S50.7 85.6 51.8 88C52.2 88.8 52.3 89.8 52.3 90.7 52.3 91.2 51.8 91.8 51.4 92.8" fill="black"></path><path d="M81.4 5C88.2 6.9 91.2 12.3 94.2 17.6 91.5 20.6 90.9 20.7 88.6 17.7 86.9 15.5 85.3 13.3 83.7 11.1 83.5 10.8 83.2 10.6 82.9 10.4 80.7 9 80.4 8.1 81.4 5" fill="black"></path><path d="M27.8 94.9C27.1 93 26.5 91.1 25.6 89.3 24.2 86.3 22.2 83.9 19.2 82.6 16.3 81.4 13.2 80.4 10.3 79.3 9 78.8 8.3 78.3 7.5 77 8.9 76.4 10.4 76.6 11.7 77 14.8 77.9 17.8 78.8 20.7 80.1 22.2 80.7 23.3 82.1 24.6 83.2 27.5 85.6 27.9 89.3 29.1 92.6 29.5 93.7 28.6 94.3 28.4 95.1 28.2 95 28 94.9 27.8 94.9" fill="black"></path></g></svg></g></g></svg></g><defs><mask></mask></defs></svg><rect width="395.52" height="247.2" fill="black" stroke="none" visibility="hidden"></rect></g></mask><linearGradient x1="0" x2="1" y1="0.548" y2="0.55" id="3f26c264-47a9-453b-ab5b-3c4e6e2d6b7b"><stop stop-color="#ff6cab" offset="0"></stop><stop stop-color="#7366ff" offset="1"></stop></linearGradient><rect width="395.52" height="247.2" fill="url(#3f26c264-47a9-453b-ab5b-3c4e6e2d6b7b)" mask="url(#f3c4ba52-a1ab-4d44-8b8e-12678f2b591e)" data-fill-palette-color="primary"></rect><mask id="ab20e77f-9cd6-4407-ace5-35b8b53a5e43"><g id="SvgjsG1198"><svg viewBox="0 0 395.52 247.2" height="247.2" width="395.52"><g><svg></svg></g><g><svg viewBox="0 0 395.52 247.2" height="247.2" width="395.52"><mask id="SvgjsMask1197"><rect width="640" height="400" fill="black"></rect><g transform="matrix(1,0,0,1,44.16,85.7891742861872)"><svg viewBox="0 0 307.2 75.62165142762558" height="75.62165142762558" width="307.2"><g><svg viewBox="0 0 307.2 75.62165142762558" height="75.62165142762558" width="307.2"><g><svg viewBox="0 0 307.2 75.62165142762558" height="75.62165142762558" width="307.2"><g><svg viewBox="0 0 307.2 75.62165142762558" height="75.62165142762558" width="307.2"><g id="SvgjsG1196"><svg viewBox="0 0 307.2 75.62165142762558" height="75.62165142762558" width="307.2" id="SvgjsSvg1195"><g><svg viewBox="0 0 307.2 75.62165142762558" height="75.62165142762558" width="307.2"><g transform="matrix(1,0,0,1,0,0)"><svg width="307.2" viewBox="-2.35 -54.5 247.0410529963813 61.57142857142857" height="75.62165142762558" data-palette-color="url(#3f26c264-47a9-453b-ab5b-3c4e6e2d6b7b)"><g transform="matrix(1,0,0,1,0,0)"><g><svg width="7.026570622738311" viewBox="-1.3199999999999998 -12.53 17.52 17.490000000000002" height="7.011468811736896" data-palette-color="url(#3f26c264-47a9-453b-ab5b-3c4e6e2d6b7b)" id="SvgjsSvg1194" x="231.70922768501214" y="-8.47427440586845"><path d="M7.44 0.46L7.44 0.46Q5.68 0.46 4.43-0.79 3.18-2.04 3.18-3.8L3.18-3.8Q3.18-5.54 4.43-6.78 5.68-8.03 7.44-8.03L7.44-8.03Q9.14-8.03 10.42-6.78 11.7-5.54 11.7-3.8L11.7-3.8Q11.7-2.63 11.11-1.66 10.51-0.69 9.55-0.12 8.59 0.46 7.44 0.46Z" opacity="1" transform="matrix(1,0,0,1,0,0)" fill="black" class="undefined-123" id="SvgjsPath1193" stroke-width="8" stroke="black" stroke-linejoin="round"></path></svg></g></g><path d="M230.254-4.969C230.254-7.713 232.478-9.937 235.223-9.937 237.967-9.937 240.191-7.713 240.191-4.969 240.191-2.224 237.967 0 235.223 0 232.478 0 230.254-2.224 230.254-4.969ZM235.223-0.4C237.746-0.4 239.791-2.445 239.791-4.969 239.791-7.492 237.746-9.537 235.223-9.537 232.699-9.537 230.654-7.492 230.654-4.969 230.654-2.445 232.699-0.4 235.223-0.4Z" fill="black" id="SvgjsPath1192" stroke-width="8" stroke="black" stroke-linejoin="round"></path><g class="wordmark-text-0" data-fill-palette-color="primary" id="SvgjsG1191"><path d="M6.5-0.5L6.5-27.5Q6.5-28.85 7.1-30.33 7.7-31.8 8.7-33.08 9.7-34.35 10.85-35L10.85-35 26-43.75 26-38.75 10.85-30 10.85-19 26-27.75 26-22.75 10.85-14 10.85-3 26-11.75 26-6.75 10.85 2Q9.1 3 7.8 2.25 6.5 1.5 6.5-0.5L6.5-0.5ZM21.65-14.25L26-11.75 10.85-3 6.5-5.5 21.65-14.25ZM21.65-30.25L26-27.75 10.85-19 6.5-21.5 21.65-30.25ZM21.65-46.25L26-43.75 10.85-35Q9.7-34.35 8.7-33.08 7.7-31.8 7.1-30.33 6.5-28.85 6.5-27.5L6.5-27.5 6.5-0.5Q6.5 1.5 7.8 2.25L7.8 2.25 3.45-0.25Q2.15-1 2.15-3L2.15-3 2.15-30Q2.15-31.35 2.75-32.83 3.35-34.3 4.35-35.58 5.35-36.85 6.5-37.5L6.5-37.5 21.65-46.25ZM39-27L39-27 47.65-32Q49.35-33 50.65-32.25 51.95-31.5 51.95-29.5L51.95-29.5 51.95-24.5 47.65-22 47.65-27 39-22 39-3 47.65-8 47.65-13 51.95-15.5 51.95-10.5Q51.95-9.2 51.35-7.7 50.75-6.2 49.77-4.93 48.8-3.65 47.65-3L47.65-3 39 2Q37.25 3 35.95 2.25 34.65 1.5 34.65-0.5L34.65-0.5 34.65-19.5Q34.65-20.85 35.25-22.33 35.85-23.8 36.85-25.08 37.85-26.35 39-27ZM47.65-18L51.95-15.5 47.65-13 43.3-15.5 47.65-18ZM43.3-15.5L47.65-13 47.65-8 43.3-10.5 43.3-15.5ZM43.3-10.5L47.65-8 39-3 34.65-5.5 43.3-10.5ZM43.3-29.5L47.65-27 47.65-22 43.3-24.5 43.3-29.5ZM46.35-34.75L50.65-32.25Q49.35-33 47.65-32L47.65-32 39-27Q37.85-26.35 36.85-25.08 35.85-23.8 35.25-22.33 34.65-20.85 34.65-19.5L34.65-19.5 34.65-0.5Q34.65 1.5 35.95 2.25L35.95 2.25 31.6-0.25Q30.3-1 30.3-3L30.3-3 30.3-22Q30.3-23.35 30.9-24.83 31.5-26.3 32.5-27.58 33.5-28.85 34.65-29.5L34.65-29.5 43.3-34.5Q45.05-35.5 46.35-34.75L46.35-34.75ZM69.3-29.5L69.3-29.5 73.65-32Q75.34-33 76.65-32.25 77.95-31.5 77.95-29.5L77.95-29.5 77.95-7.5 73.65-5 73.65-27 65-22 65 0 60.65 2.5 60.65-37.5 65-40 65-22Q65-23.35 65.59-24.83 66.2-26.3 67.17-27.58 68.15-28.85 69.3-29.5ZM69.3-29.5L73.65-27 73.65-5 69.3-7.5 69.3-29.5ZM72.34-34.75L76.65-32.25Q75.34-33 73.65-32L73.65-32 69.3-29.5Q68.15-28.85 67.17-27.58 66.2-26.3 65.59-24.83 65-23.35 65-22L65-22 60.65-24.5Q60.65-25.85 61.25-27.33 61.85-28.8 62.85-30.08 63.85-31.35 65-32L65-32 69.3-34.5Q71.05-35.5 72.34-34.75L72.34-34.75ZM60.65-42.5L65-40 60.65-37.5 56.3-40 60.65-42.5ZM56.3-40L60.65-37.5 60.65 2.5 56.3 0 56.3-40ZM90.99-27L90.99-27 99.64-32Q101.34-33 102.64-32.25 103.94-31.5 103.94-29.5L103.94-29.5 103.94-10.5Q103.94-9.2 103.34-7.7 102.74-6.2 101.77-4.93 100.79-3.65 99.64-3L99.64-3 90.99 2Q89.24 3 87.94 2.25 86.64 1.5 86.64-0.5L86.64-0.5 86.64-19.5Q86.64-20.85 87.24-22.33 87.84-23.8 88.84-25.08 89.84-26.35 90.99-27ZM90.99-22L90.99-3 99.64-8 99.64-27 90.99-22ZM95.29-29.5L99.64-27 99.64-8 95.29-10.5 95.29-29.5ZM95.29-10.5L99.64-8 90.99-3 86.64-5.5 95.29-10.5ZM98.34-34.75L102.64-32.25Q101.34-33 99.64-32L99.64-32 90.99-27Q89.84-26.35 88.84-25.08 87.84-23.8 87.24-22.33 86.64-20.85 86.64-19.5L86.64-19.5 86.64-0.5Q86.64 1.5 87.94 2.25L87.94 2.25 83.59-0.25Q82.29-1 82.29-3L82.29-3 82.29-22Q82.29-23.35 82.89-24.83 83.49-26.3 84.49-27.58 85.49-28.85 86.64-29.5L86.64-29.5 95.29-34.5Q97.04-35.5 98.34-34.75L98.34-34.75ZM112.64-34.5L128.24-43.5Q129.94-44.5 131.24-43.75 132.54-43 132.54-41L132.54-41 132.54-14Q132.54-12.65 131.94-11.18 131.34-9.7 130.37-8.43 129.39-7.15 128.24-6.5L128.24-6.5 121.29-2.5Q119.59-1.5 118.29-2.25 116.99-3 116.99-5L116.99-5 128.24-11.5 128.24-38.5 116.99-32 116.99 0 112.64 2.5 112.64-34.5ZM123.89-41L128.24-38.5 128.24-11.5 123.89-14 123.89-41ZM123.89-14L128.24-11.5 116.99-5 112.64-7.5 123.89-14ZM112.64-7.5L116.99-5Q116.99-3 118.29-2.25L118.29-2.25 113.94-4.75Q112.64-5.5 112.64-7.5L112.64-7.5ZM126.94-46.25L131.24-43.75Q129.94-44.5 128.24-43.5L128.24-43.5 112.64-34.5 108.29-37 123.89-46Q125.59-47 126.94-46.25L126.94-46.25ZM108.29-37L112.64-34.5 112.64 2.5 108.29 0 108.29-37ZM141.24-34.5L156.84-43.5Q158.54-44.5 159.84-43.75 161.14-43 161.14-41L161.14-41 161.14-14Q161.14-12.65 160.54-11.18 159.94-9.7 158.96-8.43 157.99-7.15 156.84-6.5L156.84-6.5 149.89-2.5Q148.19-1.5 146.89-2.25 145.59-3 145.59-5L145.59-5 156.84-11.5 156.84-38.5 145.59-32 145.59 0 141.24 2.5 141.24-34.5ZM152.49-41L156.84-38.5 156.84-11.5 152.49-14 152.49-41ZM152.49-14L156.84-11.5 145.59-5 141.24-7.5 152.49-14ZM141.24-7.5L145.59-5Q145.59-3 146.89-2.25L146.89-2.25 142.54-4.75Q141.24-5.5 141.24-7.5L141.24-7.5ZM155.54-46.25L159.84-43.75Q158.54-44.5 156.84-43.5L156.84-43.5 141.24-34.5 136.89-37 152.49-46Q154.19-47 155.54-46.25L155.54-46.25ZM136.89-37L141.24-34.5 141.24 2.5 136.89 0 136.89-37ZM169.84-32.5L180.64-38.75Q182.39-39.75 183.69-39 184.99-38.25 184.99-36.25L184.99-36.25 184.99-11.25 191.49-15 191.49-45 195.84-47.5 195.84-12.5 184.99-6.25Q183.29-5.25 181.96-6 180.64-6.75 180.64-8.75L180.64-8.75 180.64-33.75 174.19-30 174.19 0 169.84 2.5 169.84-32.5ZM191.49-50L195.84-47.5 191.49-45 187.14-47.5 191.49-50ZM187.14-47.5L191.49-45 191.49-15 187.14-17.5 187.14-47.5ZM187.14-17.5L191.49-15 184.99-11.25 180.64-13.75 187.14-17.5ZM176.34-36.25L180.64-33.75 180.64-8.75Q180.64-6.75 181.94-6L181.94-6 177.64-8.5Q176.34-9.25 176.34-11.25L176.34-11.25 176.34-36.25ZM179.34-41.5L183.69-39Q182.39-39.75 180.64-38.75L180.64-38.75 169.84-32.5 165.49-35 176.34-41.25Q178.03-42.25 179.34-41.5L179.34-41.5ZM165.49-35L169.84-32.5 169.84 2.5 165.49 0 165.49-35ZM219.63-21.25L208.83-15Q207.08-14 205.78-14.75 204.48-15.5 204.48-17.5L204.48-17.5 204.48-29.5Q204.48-30.85 205.08-32.33 205.68-33.8 206.68-35.08 207.68-36.35 208.83-37L208.83-37 219.63-43.25Q221.33-44.25 222.66-43.5 223.98-42.75 223.98-40.75L223.98-40.75 223.98-33.75 219.63-31.25 219.63-38.25 208.83-32 208.83-20 219.63-26.25Q221.33-27.25 222.66-26.5 223.98-25.75 223.98-23.75L223.98-23.75 223.98-11.75Q223.98-10.45 223.36-8.95 222.73-7.45 221.76-6.18 220.78-4.9 219.63-4.25L219.63-4.25 208.83 2Q207.08 3 205.78 2.25 204.48 1.5 204.48-0.5L204.48-0.5 204.48-5.5 208.83-8 208.83-3 219.63-9.25 219.63-21.25ZM215.28-23.75L219.63-21.25 219.63-9.25 215.28-11.75 215.28-23.75ZM215.28-11.75L219.63-9.25 208.83-3 204.48-5.5 215.28-11.75ZM215.28-40.75L219.63-38.25 219.63-31.25 215.28-33.75 215.28-40.75ZM204.48-10.5L208.83-8 204.48-5.5 200.13-8 204.48-10.5ZM200.13-8L204.48-5.5 204.48-0.5Q204.48 1.5 205.78 2.25L205.78 2.25 201.43-0.25Q200.13-1 200.13-3L200.13-3 200.13-8ZM218.33-29L222.68-26.5Q221.33-27.25 219.63-26.25L219.63-26.25 208.83-20 204.48-22.5 215.28-28.75Q217.03-29.75 218.33-29L218.33-29ZM218.33-46L222.68-43.5Q221.33-44.25 219.63-43.25L219.63-43.25 208.83-37Q207.68-36.35 206.68-35.08 205.68-33.8 205.08-32.33 204.48-30.85 204.48-29.5L204.48-29.5 204.48-17.5Q204.48-15.5 205.78-14.75L205.78-14.75 201.43-17.25Q200.13-18 200.13-20L200.13-20 200.13-32Q200.13-33.35 200.73-34.83 201.33-36.3 202.33-37.58 203.33-38.85 204.48-39.5L204.48-39.5 215.28-45.75Q217.03-46.75 218.33-46L218.33-46Z" fill="black" stroke-width="8" stroke="black" stroke-linejoin="round"></path></g></svg></g></svg></g></svg></g></svg></g></svg></g></svg></g></svg></g></mask><g transform="matrix(1,0,0,1,44.16,85.7891742861872)"><svg viewBox="0 0 307.2 75.62165142762558" height="75.62165142762558" width="307.2"><g><svg viewBox="0 0 307.2 75.62165142762558" height="75.62165142762558" width="307.2"><g><svg viewBox="0 0 307.2 75.62165142762558" height="75.62165142762558" width="307.2"><g><svg viewBox="0 0 307.2 75.62165142762558" height="75.62165142762558" width="307.2"><g id="SvgjsG1190"><svg viewBox="0 0 307.2 75.62165142762558" height="75.62165142762558" width="307.2" id="SvgjsSvg1189"><g><svg viewBox="0 0 307.2 75.62165142762558" height="75.62165142762558" width="307.2"><g transform="matrix(1,0,0,1,0,0)"><svg width="307.2" viewBox="-2.35 -54.5 247.0410529963813 61.57142857142857" height="75.62165142762558" data-palette-color="url(#3f26c264-47a9-453b-ab5b-3c4e6e2d6b7b)"><g transform="matrix(1,0,0,1,0,0)"><g><svg width="7.026570622738311" viewBox="-1.3199999999999998 -12.53 17.52 17.490000000000002" height="7.011468811736896" data-palette-color="url(#3f26c264-47a9-453b-ab5b-3c4e6e2d6b7b)" id="SvgjsSvg1188" x="231.70922768501214" y="-8.47427440586845"></svg></g></g><g class="wordmark-text-0" data-fill-palette-color="primary" id="SvgjsG1187"></g></svg></g></svg></g></svg></g></svg></g></svg></g></svg></g></svg></g><g mask="url(#b15668bc-4289-449b-b653-594a7801ad8c)"><g transform="matrix(2.7214206437291897, 0, 0, 2.7214206437291897, 77.47320754716979, 1)"><svg xmlns="http://www.w3.org/2000/svg" xmlns:xlink="http://www.w3.org/1999/xlink" version="1.1" x="0" y="0" viewBox="5.8 5 88.4 90.1" enable-background="new 0 0 100 100" xml:space="preserve" height="90.1" width="88.4" class="icon-none" data-fill-palette-color="accent" id="SvgjsSvg1186"><g fill="white"><path d="M89.7 63.9C87.8 61.2 86 58.8 84.8 55.9 84.4 54.9 83.8 53.9 83.1 53.1 80.3 49.9 77.5 46.7 74.6 43.5 69.5 37.8 63.4 33.2 56.8 29.4 50.8 25.9 44.7 22.5 38.6 19.2 36.1 17.8 33.4 16.6 30.8 15.4 29.5 14.8 28 14.6 26.7 14.1 25.2 13.6 23.6 13.3 22.2 12.6 19.2 11 15.9 10.4 12.8 9.5 11.6 9.1 10.4 8.9 9.7 7.7 8.8 6.2 8.8 5.7 10.4 5.5 12.2 5.2 14.2 5 16 5.2 20 5.7 24 6.5 28 7.2 29 7.4 29.9 7.8 30.9 8.2 41.8 12.9 52.1 18.6 62.1 24.9 68.1 28.7 73.4 33.3 77.8 38.8 79.6 41.1 81.5 43.3 83.4 45.5 85.1 47.4 86.5 49.5 87.4 51.9 88.4 54.4 89.6 56.8 90.7 59.2 91.5 60.9 91 62.3 89.7 63.9" fill="white"></path><path d="M5.8 21.8C8.1 20.4 10.3 20 12.8 20.4 17.5 21.2 22.1 22.6 26.5 24.5 32.4 27 38.3 29.2 43.8 32.6 55 39.6 64.3 48.5 72.2 58.9 75.4 63.1 79.1 67 81.7 71.6 82.8 73.5 83.7 75.5 84.7 77.4 85.7 79.2 86.8 80.9 87.7 82.7 88.5 84.3 88.9 86.1 89.5 87.8 90 89.3 90.5 90.8 91.1 92.3 91.3 92.9 91.7 93.5 91 94.1S89.6 94.4 89.1 93.9C88.7 93.5 88.2 93.1 88.1 92.6 87.6 90 85.8 88.1 84.6 85.9 84.3 85.3 83.8 84.8 83.6 84.2 81.3 78.7 77.7 73.9 74 69.3 68.7 62.9 63.5 56.4 57.4 50.7 52.4 46 47.1 42 41.4 38.4 37 35.7 32.5 33.2 27.9 30.9 23.8 28.8 19.5 27 15.2 25.3 13.3 24.6 11.3 24.3 9.3 23.9 8 23.7 6.9 23.2 5.8 21.8" fill="white"></path><path d="M72.7 93.2C70.8 90.8 68.8 88.4 67.1 85.9 64.9 82.6 62.8 79.5 59.7 76.9 54.6 72.7 49.8 68.2 44.7 64S33.9 56.4 28 53.6C25.3 52.3 22.6 50.9 19.7 49.8 17.8 49.1 16 48.4 14.2 47.3 12.7 46.4 10.8 46.1 9.1 45.6 8.3 45.3 7.4 45.2 6.7 44.7 6.3 44.4 6 43.6 6 43 6 42.6 6.7 42 7.2 42 8.5 41.8 9.8 41.7 11.1 41.9 15.2 42.6 19.2 43.3 23 45.3 23.8 45.7 24.6 46.1 25.4 46.3 31.8 48 37 51.9 42.3 55.5 46.2 58.2 49.6 61.7 53.3 64.6 57.1 67.6 60.5 70.9 63.4 74.7 65.3 77.3 67.1 80.1 68.8 82.8 70 84.8 71.1 86.8 72.2 88.9 72.8 90.2 73.2 91.6 73.3 93 73 93 72.8 93.1 72.7 93.2" fill="white"></path><path d="M93.4 37.1C93 37.6 92.8 38 92.4 38.3 91.1 39.6 90.4 39.5 89.3 38 88.4 36.8 87.6 35.5 86.7 34.3 82.2 28.2 76 23.9 70 19.3 67.3 17.3 64.6 15.1 61.9 13.1 61.2 12.6 60.5 11.9 59.7 11.7 57.8 11.2 56.5 9.8 55 8.7 54.6 8.4 54.3 7.9 54.1 7.5 53.8 6.6 54.1 6 55 6 56.3 6 57.6 6 58.9 6.4 62.5 7.5 65.7 9.7 68.7 11.9 70.2 13 71.5 14.2 73 15.2 77.1 17.9 80.7 21.1 84.4 24.3 87.5 26.9 91.5 32.7 93.4 37.1" fill="white"></path><path d="M51.4 92.8C50.1 90.7 48.9 89.3 48.2 87.6 47 84.6 45.3 82.2 42.6 80.3 40.4 78.7 38.6 76.8 36.3 75.3 33.3 73.3 30 71.7 26.9 69.9 21.8 67 16 65.7 10.4 64.2 9.4 63.9 8.3 63.9 7.2 63.7 6.9 63.6 6.3 63.1 6.4 62.9 6.4 62.5 6.8 61.9 7.1 61.7 7.9 61.4 8.8 61.2 9.6 61.2 13.5 61.3 17.3 62.1 21.1 63.2 25.5 64.4 29.6 66.4 33.7 68.5 37.2 70.3 40.4 72.8 43.3 75.6 45.1 77.3 47.1 78.7 48.3 81S50.7 85.6 51.8 88C52.2 88.8 52.3 89.8 52.3 90.7 52.3 91.2 51.8 91.8 51.4 92.8" fill="white"></path><path d="M81.4 5C88.2 6.9 91.2 12.3 94.2 17.6 91.5 20.6 90.9 20.7 88.6 17.7 86.9 15.5 85.3 13.3 83.7 11.1 83.5 10.8 83.2 10.6 82.9 10.4 80.7 9 80.4 8.1 81.4 5" fill="white"></path><path d="M27.8 94.9C27.1 93 26.5 91.1 25.6 89.3 24.2 86.3 22.2 83.9 19.2 82.6 16.3 81.4 13.2 80.4 10.3 79.3 9 78.8 8.3 78.3 7.5 77 8.9 76.4 10.4 76.6 11.7 77 14.8 77.9 17.8 78.8 20.7 80.1 22.2 80.7 23.3 82.1 24.6 83.2 27.5 85.6 27.9 89.3 29.1 92.6 29.5 93.7 28.6 94.3 28.4 95.1 28.2 95 28 94.9 27.8 94.9" fill="white"></path></g></svg></g></g></svg></g><defs><mask></mask></defs><mask><g id="SvgjsG1185"><svg viewBox="0 0 395.52 247.2" height="247.2" width="395.52"><g><svg></svg></g><g><svg viewBox="0 0 395.52 247.2" height="247.2" width="395.52"><mask id="SvgjsMask1184"><rect width="640" height="400" fill="black"></rect><g transform="matrix(1,0,0,1,44.16,85.7891742861872)"><svg viewBox="0 0 307.2 75.62165142762558" height="75.62165142762558" width="307.2"><g><svg viewBox="0 0 307.2 75.62165142762558" height="75.62165142762558" width="307.2"><g><svg viewBox="0 0 307.2 75.62165142762558" height="75.62165142762558" width="307.2"><g><svg viewBox="0 0 307.2 75.62165142762558" height="75.62165142762558" width="307.2"><g id="SvgjsG1183"><svg viewBox="0 0 307.2 75.62165142762558" height="75.62165142762558" width="307.2" id="SvgjsSvg1182"><g><svg viewBox="0 0 307.2 75.62165142762558" height="75.62165142762558" width="307.2"><g transform="matrix(1,0,0,1,0,0)"><svg width="307.2" viewBox="-2.35 -54.5 247.0410529963813 61.57142857142857" height="75.62165142762558" data-palette-color="url(#3f26c264-47a9-453b-ab5b-3c4e6e2d6b7b)"><g transform="matrix(1,0,0,1,0,0)"><g><svg width="7.026570622738311" viewBox="-1.3199999999999998 -12.53 17.52 17.490000000000002" height="7.011468811736896" data-palette-color="url(#3f26c264-47a9-453b-ab5b-3c4e6e2d6b7b)" id="SvgjsSvg1181" x="231.70922768501214" y="-8.47427440586845"><path d="M7.44 0.46L7.44 0.46Q5.68 0.46 4.43-0.79 3.18-2.04 3.18-3.8L3.18-3.8Q3.18-5.54 4.43-6.78 5.68-8.03 7.44-8.03L7.44-8.03Q9.14-8.03 10.42-6.78 11.7-5.54 11.7-3.8L11.7-3.8Q11.7-2.63 11.11-1.66 10.51-0.69 9.55-0.12 8.59 0.46 7.44 0.46Z" opacity="1" transform="matrix(1,0,0,1,0,0)" fill="black" class="undefined-123" id="SvgjsPath1180" stroke-width="8" stroke="black" stroke-linejoin="round"></path></svg></g></g><path d="M230.254-4.969C230.254-7.713 232.478-9.937 235.223-9.937 237.967-9.937 240.191-7.713 240.191-4.969 240.191-2.224 237.967 0 235.223 0 232.478 0 230.254-2.224 230.254-4.969ZM235.223-0.4C237.746-0.4 239.791-2.445 239.791-4.969 239.791-7.492 237.746-9.537 235.223-9.537 232.699-9.537 230.654-7.492 230.654-4.969 230.654-2.445 232.699-0.4 235.223-0.4Z" fill="black" id="SvgjsPath1179" stroke-width="8" stroke="black" stroke-linejoin="round"></path><g class="wordmark-text-0" data-fill-palette-color="primary" id="SvgjsG1178"><path d="M6.5-0.5L6.5-27.5Q6.5-28.85 7.1-30.33 7.7-31.8 8.7-33.08 9.7-34.35 10.85-35L10.85-35 26-43.75 26-38.75 10.85-30 10.85-19 26-27.75 26-22.75 10.85-14 10.85-3 26-11.75 26-6.75 10.85 2Q9.1 3 7.8 2.25 6.5 1.5 6.5-0.5L6.5-0.5ZM21.65-14.25L26-11.75 10.85-3 6.5-5.5 21.65-14.25ZM21.65-30.25L26-27.75 10.85-19 6.5-21.5 21.65-30.25ZM21.65-46.25L26-43.75 10.85-35Q9.7-34.35 8.7-33.08 7.7-31.8 7.1-30.33 6.5-28.85 6.5-27.5L6.5-27.5 6.5-0.5Q6.5 1.5 7.8 2.25L7.8 2.25 3.45-0.25Q2.15-1 2.15-3L2.15-3 2.15-30Q2.15-31.35 2.75-32.83 3.35-34.3 4.35-35.58 5.35-36.85 6.5-37.5L6.5-37.5 21.65-46.25ZM39-27L39-27 47.65-32Q49.35-33 50.65-32.25 51.95-31.5 51.95-29.5L51.95-29.5 51.95-24.5 47.65-22 47.65-27 39-22 39-3 47.65-8 47.65-13 51.95-15.5 51.95-10.5Q51.95-9.2 51.35-7.7 50.75-6.2 49.77-4.93 48.8-3.65 47.65-3L47.65-3 39 2Q37.25 3 35.95 2.25 34.65 1.5 34.65-0.5L34.65-0.5 34.65-19.5Q34.65-20.85 35.25-22.33 35.85-23.8 36.85-25.08 37.85-26.35 39-27ZM47.65-18L51.95-15.5 47.65-13 43.3-15.5 47.65-18ZM43.3-15.5L47.65-13 47.65-8 43.3-10.5 43.3-15.5ZM43.3-10.5L47.65-8 39-3 34.65-5.5 43.3-10.5ZM43.3-29.5L47.65-27 47.65-22 43.3-24.5 43.3-29.5ZM46.35-34.75L50.65-32.25Q49.35-33 47.65-32L47.65-32 39-27Q37.85-26.35 36.85-25.08 35.85-23.8 35.25-22.33 34.65-20.85 34.65-19.5L34.65-19.5 34.65-0.5Q34.65 1.5 35.95 2.25L35.95 2.25 31.6-0.25Q30.3-1 30.3-3L30.3-3 30.3-22Q30.3-23.35 30.9-24.83 31.5-26.3 32.5-27.58 33.5-28.85 34.65-29.5L34.65-29.5 43.3-34.5Q45.05-35.5 46.35-34.75L46.35-34.75ZM69.3-29.5L69.3-29.5 73.65-32Q75.34-33 76.65-32.25 77.95-31.5 77.95-29.5L77.95-29.5 77.95-7.5 73.65-5 73.65-27 65-22 65 0 60.65 2.5 60.65-37.5 65-40 65-22Q65-23.35 65.59-24.83 66.2-26.3 67.17-27.58 68.15-28.85 69.3-29.5ZM69.3-29.5L73.65-27 73.65-5 69.3-7.5 69.3-29.5ZM72.34-34.75L76.65-32.25Q75.34-33 73.65-32L73.65-32 69.3-29.5Q68.15-28.85 67.17-27.58 66.2-26.3 65.59-24.83 65-23.35 65-22L65-22 60.65-24.5Q60.65-25.85 61.25-27.33 61.85-28.8 62.85-30.08 63.85-31.35 65-32L65-32 69.3-34.5Q71.05-35.5 72.34-34.75L72.34-34.75ZM60.65-42.5L65-40 60.65-37.5 56.3-40 60.65-42.5ZM56.3-40L60.65-37.5 60.65 2.5 56.3 0 56.3-40ZM90.99-27L90.99-27 99.64-32Q101.34-33 102.64-32.25 103.94-31.5 103.94-29.5L103.94-29.5 103.94-10.5Q103.94-9.2 103.34-7.7 102.74-6.2 101.77-4.93 100.79-3.65 99.64-3L99.64-3 90.99 2Q89.24 3 87.94 2.25 86.64 1.5 86.64-0.5L86.64-0.5 86.64-19.5Q86.64-20.85 87.24-22.33 87.84-23.8 88.84-25.08 89.84-26.35 90.99-27ZM90.99-22L90.99-3 99.64-8 99.64-27 90.99-22ZM95.29-29.5L99.64-27 99.64-8 95.29-10.5 95.29-29.5ZM95.29-10.5L99.64-8 90.99-3 86.64-5.5 95.29-10.5ZM98.34-34.75L102.64-32.25Q101.34-33 99.64-32L99.64-32 90.99-27Q89.84-26.35 88.84-25.08 87.84-23.8 87.24-22.33 86.64-20.85 86.64-19.5L86.64-19.5 86.64-0.5Q86.64 1.5 87.94 2.25L87.94 2.25 83.59-0.25Q82.29-1 82.29-3L82.29-3 82.29-22Q82.29-23.35 82.89-24.83 83.49-26.3 84.49-27.58 85.49-28.85 86.64-29.5L86.64-29.5 95.29-34.5Q97.04-35.5 98.34-34.75L98.34-34.75ZM112.64-34.5L128.24-43.5Q129.94-44.5 131.24-43.75 132.54-43 132.54-41L132.54-41 132.54-14Q132.54-12.65 131.94-11.18 131.34-9.7 130.37-8.43 129.39-7.15 128.24-6.5L128.24-6.5 121.29-2.5Q119.59-1.5 118.29-2.25 116.99-3 116.99-5L116.99-5 128.24-11.5 128.24-38.5 116.99-32 116.99 0 112.64 2.5 112.64-34.5ZM123.89-41L128.24-38.5 128.24-11.5 123.89-14 123.89-41ZM123.89-14L128.24-11.5 116.99-5 112.64-7.5 123.89-14ZM112.64-7.5L116.99-5Q116.99-3 118.29-2.25L118.29-2.25 113.94-4.75Q112.64-5.5 112.64-7.5L112.64-7.5ZM126.94-46.25L131.24-43.75Q129.94-44.5 128.24-43.5L128.24-43.5 112.64-34.5 108.29-37 123.89-46Q125.59-47 126.94-46.25L126.94-46.25ZM108.29-37L112.64-34.5 112.64 2.5 108.29 0 108.29-37ZM141.24-34.5L156.84-43.5Q158.54-44.5 159.84-43.75 161.14-43 161.14-41L161.14-41 161.14-14Q161.14-12.65 160.54-11.18 159.94-9.7 158.96-8.43 157.99-7.15 156.84-6.5L156.84-6.5 149.89-2.5Q148.19-1.5 146.89-2.25 145.59-3 145.59-5L145.59-5 156.84-11.5 156.84-38.5 145.59-32 145.59 0 141.24 2.5 141.24-34.5ZM152.49-41L156.84-38.5 156.84-11.5 152.49-14 152.49-41ZM152.49-14L156.84-11.5 145.59-5 141.24-7.5 152.49-14ZM141.24-7.5L145.59-5Q145.59-3 146.89-2.25L146.89-2.25 142.54-4.75Q141.24-5.5 141.24-7.5L141.24-7.5ZM155.54-46.25L159.84-43.75Q158.54-44.5 156.84-43.5L156.84-43.5 141.24-34.5 136.89-37 152.49-46Q154.19-47 155.54-46.25L155.54-46.25ZM136.89-37L141.24-34.5 141.24 2.5 136.89 0 136.89-37ZM169.84-32.5L180.64-38.75Q182.39-39.75 183.69-39 184.99-38.25 184.99-36.25L184.99-36.25 184.99-11.25 191.49-15 191.49-45 195.84-47.5 195.84-12.5 184.99-6.25Q183.29-5.25 181.96-6 180.64-6.75 180.64-8.75L180.64-8.75 180.64-33.75 174.19-30 174.19 0 169.84 2.5 169.84-32.5ZM191.49-50L195.84-47.5 191.49-45 187.14-47.5 191.49-50ZM187.14-47.5L191.49-45 191.49-15 187.14-17.5 187.14-47.5ZM187.14-17.5L191.49-15 184.99-11.25 180.64-13.75 187.14-17.5ZM176.34-36.25L180.64-33.75 180.64-8.75Q180.64-6.75 181.94-6L181.94-6 177.64-8.5Q176.34-9.25 176.34-11.25L176.34-11.25 176.34-36.25ZM179.34-41.5L183.69-39Q182.39-39.75 180.64-38.75L180.64-38.75 169.84-32.5 165.49-35 176.34-41.25Q178.03-42.25 179.34-41.5L179.34-41.5ZM165.49-35L169.84-32.5 169.84 2.5 165.49 0 165.49-35ZM219.63-21.25L208.83-15Q207.08-14 205.78-14.75 204.48-15.5 204.48-17.5L204.48-17.5 204.48-29.5Q204.48-30.85 205.08-32.33 205.68-33.8 206.68-35.08 207.68-36.35 208.83-37L208.83-37 219.63-43.25Q221.33-44.25 222.66-43.5 223.98-42.75 223.98-40.75L223.98-40.75 223.98-33.75 219.63-31.25 219.63-38.25 208.83-32 208.83-20 219.63-26.25Q221.33-27.25 222.66-26.5 223.98-25.75 223.98-23.75L223.98-23.75 223.98-11.75Q223.98-10.45 223.36-8.95 222.73-7.45 221.76-6.18 220.78-4.9 219.63-4.25L219.63-4.25 208.83 2Q207.08 3 205.78 2.25 204.48 1.5 204.48-0.5L204.48-0.5 204.48-5.5 208.83-8 208.83-3 219.63-9.25 219.63-21.25ZM215.28-23.75L219.63-21.25 219.63-9.25 215.28-11.75 215.28-23.75ZM215.28-11.75L219.63-9.25 208.83-3 204.48-5.5 215.28-11.75ZM215.28-40.75L219.63-38.25 219.63-31.25 215.28-33.75 215.28-40.75ZM204.48-10.5L208.83-8 204.48-5.5 200.13-8 204.48-10.5ZM200.13-8L204.48-5.5 204.48-0.5Q204.48 1.5 205.78 2.25L205.78 2.25 201.43-0.25Q200.13-1 200.13-3L200.13-3 200.13-8ZM218.33-29L222.68-26.5Q221.33-27.25 219.63-26.25L219.63-26.25 208.83-20 204.48-22.5 215.28-28.75Q217.03-29.75 218.33-29L218.33-29ZM218.33-46L222.68-43.5Q221.33-44.25 219.63-43.25L219.63-43.25 208.83-37Q207.68-36.35 206.68-35.08 205.68-33.8 205.08-32.33 204.48-30.85 204.48-29.5L204.48-29.5 204.48-17.5Q204.48-15.5 205.78-14.75L205.78-14.75 201.43-17.25Q200.13-18 200.13-20L200.13-20 200.13-32Q200.13-33.35 200.73-34.83 201.33-36.3 202.33-37.58 203.33-38.85 204.48-39.5L204.48-39.5 215.28-45.75Q217.03-46.75 218.33-46L218.33-46Z" fill="black" stroke-width="8" stroke="black" stroke-linejoin="round"></path></g></svg></g></svg></g></svg></g></svg></g></svg></g></svg></g></svg></g></mask><g transform="matrix(1,0,0,1,44.16,85.7891742861872)"><svg viewBox="0 0 307.2 75.62165142762558" height="75.62165142762558" width="307.2"><g><svg viewBox="0 0 307.2 75.62165142762558" height="75.62165142762558" width="307.2"><g><svg viewBox="0 0 307.2 75.62165142762558" height="75.62165142762558" width="307.2"><g><svg viewBox="0 0 307.2 75.62165142762558" height="75.62165142762558" width="307.2"><g id="SvgjsG1177"><svg viewBox="0 0 307.2 75.62165142762558" height="75.62165142762558" width="307.2" id="SvgjsSvg1176"><g><svg viewBox="0 0 307.2 75.62165142762558" height="75.62165142762558" width="307.2"><g transform="matrix(1,0,0,1,0,0)"><svg width="307.2" viewBox="-2.35 -54.5 247.0410529963813 61.57142857142857" height="75.62165142762558" data-palette-color="url(#3f26c264-47a9-453b-ab5b-3c4e6e2d6b7b)"><g transform="matrix(1,0,0,1,0,0)"><g><svg width="7.026570622738311" viewBox="-1.3199999999999998 -12.53 17.52 17.490000000000002" height="7.011468811736896" data-palette-color="url(#3f26c264-47a9-453b-ab5b-3c4e6e2d6b7b)" id="SvgjsSvg1175" x="231.70922768501214" y="-8.47427440586845"><path d="M7.44 0.46L7.44 0.46Q5.68 0.46 4.43-0.79 3.18-2.04 3.18-3.8L3.18-3.8Q3.18-5.54 4.43-6.78 5.68-8.03 7.44-8.03L7.44-8.03Q9.14-8.03 10.42-6.78 11.7-5.54 11.7-3.8L11.7-3.8Q11.7-2.63 11.11-1.66 10.51-0.69 9.55-0.12 8.59 0.46 7.44 0.46Z" opacity="1" transform="matrix(1,0,0,1,0,0)" fill="black" class="undefined-123" id="SvgjsPath1174"></path></svg></g></g><path d="M230.254-4.969C230.254-7.713 232.478-9.937 235.223-9.937 237.967-9.937 240.191-7.713 240.191-4.969 240.191-2.224 237.967 0 235.223 0 232.478 0 230.254-2.224 230.254-4.969ZM235.223-0.4C237.746-0.4 239.791-2.445 239.791-4.969 239.791-7.492 237.746-9.537 235.223-9.537 232.699-9.537 230.654-7.492 230.654-4.969 230.654-2.445 232.699-0.4 235.223-0.4Z" fill="black" id="SvgjsPath1173"></path><g class="wordmark-text-0" data-fill-palette-color="primary" id="SvgjsG1172"><path d="M6.5-0.5L6.5-27.5Q6.5-28.85 7.1-30.33 7.7-31.8 8.7-33.08 9.7-34.35 10.85-35L10.85-35 26-43.75 26-38.75 10.85-30 10.85-19 26-27.75 26-22.75 10.85-14 10.85-3 26-11.75 26-6.75 10.85 2Q9.1 3 7.8 2.25 6.5 1.5 6.5-0.5L6.5-0.5ZM21.65-14.25L26-11.75 10.85-3 6.5-5.5 21.65-14.25ZM21.65-30.25L26-27.75 10.85-19 6.5-21.5 21.65-30.25ZM21.65-46.25L26-43.75 10.85-35Q9.7-34.35 8.7-33.08 7.7-31.8 7.1-30.33 6.5-28.85 6.5-27.5L6.5-27.5 6.5-0.5Q6.5 1.5 7.8 2.25L7.8 2.25 3.45-0.25Q2.15-1 2.15-3L2.15-3 2.15-30Q2.15-31.35 2.75-32.83 3.35-34.3 4.35-35.58 5.35-36.85 6.5-37.5L6.5-37.5 21.65-46.25ZM39-27L39-27 47.65-32Q49.35-33 50.65-32.25 51.95-31.5 51.95-29.5L51.95-29.5 51.95-24.5 47.65-22 47.65-27 39-22 39-3 47.65-8 47.65-13 51.95-15.5 51.95-10.5Q51.95-9.2 51.35-7.7 50.75-6.2 49.77-4.93 48.8-3.65 47.65-3L47.65-3 39 2Q37.25 3 35.95 2.25 34.65 1.5 34.65-0.5L34.65-0.5 34.65-19.5Q34.65-20.85 35.25-22.33 35.85-23.8 36.85-25.08 37.85-26.35 39-27ZM47.65-18L51.95-15.5 47.65-13 43.3-15.5 47.65-18ZM43.3-15.5L47.65-13 47.65-8 43.3-10.5 43.3-15.5ZM43.3-10.5L47.65-8 39-3 34.65-5.5 43.3-10.5ZM43.3-29.5L47.65-27 47.65-22 43.3-24.5 43.3-29.5ZM46.35-34.75L50.65-32.25Q49.35-33 47.65-32L47.65-32 39-27Q37.85-26.35 36.85-25.08 35.85-23.8 35.25-22.33 34.65-20.85 34.65-19.5L34.65-19.5 34.65-0.5Q34.65 1.5 35.95 2.25L35.95 2.25 31.6-0.25Q30.3-1 30.3-3L30.3-3 30.3-22Q30.3-23.35 30.9-24.83 31.5-26.3 32.5-27.58 33.5-28.85 34.65-29.5L34.65-29.5 43.3-34.5Q45.05-35.5 46.35-34.75L46.35-34.75ZM69.3-29.5L69.3-29.5 73.65-32Q75.34-33 76.65-32.25 77.95-31.5 77.95-29.5L77.95-29.5 77.95-7.5 73.65-5 73.65-27 65-22 65 0 60.65 2.5 60.65-37.5 65-40 65-22Q65-23.35 65.59-24.83 66.2-26.3 67.17-27.58 68.15-28.85 69.3-29.5ZM69.3-29.5L73.65-27 73.65-5 69.3-7.5 69.3-29.5ZM72.34-34.75L76.65-32.25Q75.34-33 73.65-32L73.65-32 69.3-29.5Q68.15-28.85 67.17-27.58 66.2-26.3 65.59-24.83 65-23.35 65-22L65-22 60.65-24.5Q60.65-25.85 61.25-27.33 61.85-28.8 62.85-30.08 63.85-31.35 65-32L65-32 69.3-34.5Q71.05-35.5 72.34-34.75L72.34-34.75ZM60.65-42.5L65-40 60.65-37.5 56.3-40 60.65-42.5ZM56.3-40L60.65-37.5 60.65 2.5 56.3 0 56.3-40ZM90.99-27L90.99-27 99.64-32Q101.34-33 102.64-32.25 103.94-31.5 103.94-29.5L103.94-29.5 103.94-10.5Q103.94-9.2 103.34-7.7 102.74-6.2 101.77-4.93 100.79-3.65 99.64-3L99.64-3 90.99 2Q89.24 3 87.94 2.25 86.64 1.5 86.64-0.5L86.64-0.5 86.64-19.5Q86.64-20.85 87.24-22.33 87.84-23.8 88.84-25.08 89.84-26.35 90.99-27ZM90.99-22L90.99-3 99.64-8 99.64-27 90.99-22ZM95.29-29.5L99.64-27 99.64-8 95.29-10.5 95.29-29.5ZM95.29-10.5L99.64-8 90.99-3 86.64-5.5 95.29-10.5ZM98.34-34.75L102.64-32.25Q101.34-33 99.64-32L99.64-32 90.99-27Q89.84-26.35 88.84-25.08 87.84-23.8 87.24-22.33 86.64-20.85 86.64-19.5L86.64-19.5 86.64-0.5Q86.64 1.5 87.94 2.25L87.94 2.25 83.59-0.25Q82.29-1 82.29-3L82.29-3 82.29-22Q82.29-23.35 82.89-24.83 83.49-26.3 84.49-27.58 85.49-28.85 86.64-29.5L86.64-29.5 95.29-34.5Q97.04-35.5 98.34-34.75L98.34-34.75ZM112.64-34.5L128.24-43.5Q129.94-44.5 131.24-43.75 132.54-43 132.54-41L132.54-41 132.54-14Q132.54-12.65 131.94-11.18 131.34-9.7 130.37-8.43 129.39-7.15 128.24-6.5L128.24-6.5 121.29-2.5Q119.59-1.5 118.29-2.25 116.99-3 116.99-5L116.99-5 128.24-11.5 128.24-38.5 116.99-32 116.99 0 112.64 2.5 112.64-34.5ZM123.89-41L128.24-38.5 128.24-11.5 123.89-14 123.89-41ZM123.89-14L128.24-11.5 116.99-5 112.64-7.5 123.89-14ZM112.64-7.5L116.99-5Q116.99-3 118.29-2.25L118.29-2.25 113.94-4.75Q112.64-5.5 112.64-7.5L112.64-7.5ZM126.94-46.25L131.24-43.75Q129.94-44.5 128.24-43.5L128.24-43.5 112.64-34.5 108.29-37 123.89-46Q125.59-47 126.94-46.25L126.94-46.25ZM108.29-37L112.64-34.5 112.64 2.5 108.29 0 108.29-37ZM141.24-34.5L156.84-43.5Q158.54-44.5 159.84-43.75 161.14-43 161.14-41L161.14-41 161.14-14Q161.14-12.65 160.54-11.18 159.94-9.7 158.96-8.43 157.99-7.15 156.84-6.5L156.84-6.5 149.89-2.5Q148.19-1.5 146.89-2.25 145.59-3 145.59-5L145.59-5 156.84-11.5 156.84-38.5 145.59-32 145.59 0 141.24 2.5 141.24-34.5ZM152.49-41L156.84-38.5 156.84-11.5 152.49-14 152.49-41ZM152.49-14L156.84-11.5 145.59-5 141.24-7.5 152.49-14ZM141.24-7.5L145.59-5Q145.59-3 146.89-2.25L146.89-2.25 142.54-4.75Q141.24-5.5 141.24-7.5L141.24-7.5ZM155.54-46.25L159.84-43.75Q158.54-44.5 156.84-43.5L156.84-43.5 141.24-34.5 136.89-37 152.49-46Q154.19-47 155.54-46.25L155.54-46.25ZM136.89-37L141.24-34.5 141.24 2.5 136.89 0 136.89-37ZM169.84-32.5L180.64-38.75Q182.39-39.75 183.69-39 184.99-38.25 184.99-36.25L184.99-36.25 184.99-11.25 191.49-15 191.49-45 195.84-47.5 195.84-12.5 184.99-6.25Q183.29-5.25 181.96-6 180.64-6.75 180.64-8.75L180.64-8.75 180.64-33.75 174.19-30 174.19 0 169.84 2.5 169.84-32.5ZM191.49-50L195.84-47.5 191.49-45 187.14-47.5 191.49-50ZM187.14-47.5L191.49-45 191.49-15 187.14-17.5 187.14-47.5ZM187.14-17.5L191.49-15 184.99-11.25 180.64-13.75 187.14-17.5ZM176.34-36.25L180.64-33.75 180.64-8.75Q180.64-6.75 181.94-6L181.94-6 177.64-8.5Q176.34-9.25 176.34-11.25L176.34-11.25 176.34-36.25ZM179.34-41.5L183.69-39Q182.39-39.75 180.64-38.75L180.64-38.75 169.84-32.5 165.49-35 176.34-41.25Q178.03-42.25 179.34-41.5L179.34-41.5ZM165.49-35L169.84-32.5 169.84 2.5 165.49 0 165.49-35ZM219.63-21.25L208.83-15Q207.08-14 205.78-14.75 204.48-15.5 204.48-17.5L204.48-17.5 204.48-29.5Q204.48-30.85 205.08-32.33 205.68-33.8 206.68-35.08 207.68-36.35 208.83-37L208.83-37 219.63-43.25Q221.33-44.25 222.66-43.5 223.98-42.75 223.98-40.75L223.98-40.75 223.98-33.75 219.63-31.25 219.63-38.25 208.83-32 208.83-20 219.63-26.25Q221.33-27.25 222.66-26.5 223.98-25.75 223.98-23.75L223.98-23.75 223.98-11.75Q223.98-10.45 223.36-8.95 222.73-7.45 221.76-6.18 220.78-4.9 219.63-4.25L219.63-4.25 208.83 2Q207.08 3 205.78 2.25 204.48 1.5 204.48-0.5L204.48-0.5 204.48-5.5 208.83-8 208.83-3 219.63-9.25 219.63-21.25ZM215.28-23.75L219.63-21.25 219.63-9.25 215.28-11.75 215.28-23.75ZM215.28-11.75L219.63-9.25 208.83-3 204.48-5.5 215.28-11.75ZM215.28-40.75L219.63-38.25 219.63-31.25 215.28-33.75 215.28-40.75ZM204.48-10.5L208.83-8 204.48-5.5 200.13-8 204.48-10.5ZM200.13-8L204.48-5.5 204.48-0.5Q204.48 1.5 205.78 2.25L205.78 2.25 201.43-0.25Q200.13-1 200.13-3L200.13-3 200.13-8ZM218.33-29L222.68-26.5Q221.33-27.25 219.63-26.25L219.63-26.25 208.83-20 204.48-22.5 215.28-28.75Q217.03-29.75 218.33-29L218.33-29ZM218.33-46L222.68-43.5Q221.33-44.25 219.63-43.25L219.63-43.25 208.83-37Q207.68-36.35 206.68-35.08 205.68-33.8 205.08-32.33 204.48-30.85 204.48-29.5L204.48-29.5 204.48-17.5Q204.48-15.5 205.78-14.75L205.78-14.75 201.43-17.25Q200.13-18 200.13-20L200.13-20 200.13-32Q200.13-33.35 200.73-34.83 201.33-36.3 202.33-37.58 203.33-38.85 204.48-39.5L204.48-39.5 215.28-45.75Q217.03-46.75 218.33-46L218.33-46Z" fill="black"></path></g></svg></g></svg></g></svg></g></svg></g></svg></g></svg></g></svg></g><g mask="url(#b15668bc-4289-449b-b653-594a7801ad8c)"><g transform="matrix(2.7214206437291897, 0, 0, 2.7214206437291897, 77.47320754716979, 1)"><svg xmlns="http://www.w3.org/2000/svg" xmlns:xlink="http://www.w3.org/1999/xlink" version="1.1" x="0" y="0" viewBox="5.8 5 88.4 90.1" enable-background="new 0 0 100 100" xml:space="preserve" height="90.1" width="88.4" class="icon-none" data-fill-palette-color="accent" id="SvgjsSvg1171"><g fill="black"><path d="M89.7 63.9C87.8 61.2 86 58.8 84.8 55.9 84.4 54.9 83.8 53.9 83.1 53.1 80.3 49.9 77.5 46.7 74.6 43.5 69.5 37.8 63.4 33.2 56.8 29.4 50.8 25.9 44.7 22.5 38.6 19.2 36.1 17.8 33.4 16.6 30.8 15.4 29.5 14.8 28 14.6 26.7 14.1 25.2 13.6 23.6 13.3 22.2 12.6 19.2 11 15.9 10.4 12.8 9.5 11.6 9.1 10.4 8.9 9.7 7.7 8.8 6.2 8.8 5.7 10.4 5.5 12.2 5.2 14.2 5 16 5.2 20 5.7 24 6.5 28 7.2 29 7.4 29.9 7.8 30.9 8.2 41.8 12.9 52.1 18.6 62.1 24.9 68.1 28.7 73.4 33.3 77.8 38.8 79.6 41.1 81.5 43.3 83.4 45.5 85.1 47.4 86.5 49.5 87.4 51.9 88.4 54.4 89.6 56.8 90.7 59.2 91.5 60.9 91 62.3 89.7 63.9" fill="black"></path><path d="M5.8 21.8C8.1 20.4 10.3 20 12.8 20.4 17.5 21.2 22.1 22.6 26.5 24.5 32.4 27 38.3 29.2 43.8 32.6 55 39.6 64.3 48.5 72.2 58.9 75.4 63.1 79.1 67 81.7 71.6 82.8 73.5 83.7 75.5 84.7 77.4 85.7 79.2 86.8 80.9 87.7 82.7 88.5 84.3 88.9 86.1 89.5 87.8 90 89.3 90.5 90.8 91.1 92.3 91.3 92.9 91.7 93.5 91 94.1S89.6 94.4 89.1 93.9C88.7 93.5 88.2 93.1 88.1 92.6 87.6 90 85.8 88.1 84.6 85.9 84.3 85.3 83.8 84.8 83.6 84.2 81.3 78.7 77.7 73.9 74 69.3 68.7 62.9 63.5 56.4 57.4 50.7 52.4 46 47.1 42 41.4 38.4 37 35.7 32.5 33.2 27.9 30.9 23.8 28.8 19.5 27 15.2 25.3 13.3 24.6 11.3 24.3 9.3 23.9 8 23.7 6.9 23.2 5.8 21.8" fill="black"></path><path d="M72.7 93.2C70.8 90.8 68.8 88.4 67.1 85.9 64.9 82.6 62.8 79.5 59.7 76.9 54.6 72.7 49.8 68.2 44.7 64S33.9 56.4 28 53.6C25.3 52.3 22.6 50.9 19.7 49.8 17.8 49.1 16 48.4 14.2 47.3 12.7 46.4 10.8 46.1 9.1 45.6 8.3 45.3 7.4 45.2 6.7 44.7 6.3 44.4 6 43.6 6 43 6 42.6 6.7 42 7.2 42 8.5 41.8 9.8 41.7 11.1 41.9 15.2 42.6 19.2 43.3 23 45.3 23.8 45.7 24.6 46.1 25.4 46.3 31.8 48 37 51.9 42.3 55.5 46.2 58.2 49.6 61.7 53.3 64.6 57.1 67.6 60.5 70.9 63.4 74.7 65.3 77.3 67.1 80.1 68.8 82.8 70 84.8 71.1 86.8 72.2 88.9 72.8 90.2 73.2 91.6 73.3 93 73 93 72.8 93.1 72.7 93.2" fill="black"></path><path d="M93.4 37.1C93 37.6 92.8 38 92.4 38.3 91.1 39.6 90.4 39.5 89.3 38 88.4 36.8 87.6 35.5 86.7 34.3 82.2 28.2 76 23.9 70 19.3 67.3 17.3 64.6 15.1 61.9 13.1 61.2 12.6 60.5 11.9 59.7 11.7 57.8 11.2 56.5 9.8 55 8.7 54.6 8.4 54.3 7.9 54.1 7.5 53.8 6.6 54.1 6 55 6 56.3 6 57.6 6 58.9 6.4 62.5 7.5 65.7 9.7 68.7 11.9 70.2 13 71.5 14.2 73 15.2 77.1 17.9 80.7 21.1 84.4 24.3 87.5 26.9 91.5 32.7 93.4 37.1" fill="black"></path><path d="M51.4 92.8C50.1 90.7 48.9 89.3 48.2 87.6 47 84.6 45.3 82.2 42.6 80.3 40.4 78.7 38.6 76.8 36.3 75.3 33.3 73.3 30 71.7 26.9 69.9 21.8 67 16 65.7 10.4 64.2 9.4 63.9 8.3 63.9 7.2 63.7 6.9 63.6 6.3 63.1 6.4 62.9 6.4 62.5 6.8 61.9 7.1 61.7 7.9 61.4 8.8 61.2 9.6 61.2 13.5 61.3 17.3 62.1 21.1 63.2 25.5 64.4 29.6 66.4 33.7 68.5 37.2 70.3 40.4 72.8 43.3 75.6 45.1 77.3 47.1 78.7 48.3 81S50.7 85.6 51.8 88C52.2 88.8 52.3 89.8 52.3 90.7 52.3 91.2 51.8 91.8 51.4 92.8" fill="black"></path><path d="M81.4 5C88.2 6.9 91.2 12.3 94.2 17.6 91.5 20.6 90.9 20.7 88.6 17.7 86.9 15.5 85.3 13.3 83.7 11.1 83.5 10.8 83.2 10.6 82.9 10.4 80.7 9 80.4 8.1 81.4 5" fill="black"></path><path d="M27.8 94.9C27.1 93 26.5 91.1 25.6 89.3 24.2 86.3 22.2 83.9 19.2 82.6 16.3 81.4 13.2 80.4 10.3 79.3 9 78.8 8.3 78.3 7.5 77 8.9 76.4 10.4 76.6 11.7 77 14.8 77.9 17.8 78.8 20.7 80.1 22.2 80.7 23.3 82.1 24.6 83.2 27.5 85.6 27.9 89.3 29.1 92.6 29.5 93.7 28.6 94.3 28.4 95.1 28.2 95 28 94.9 27.8 94.9" fill="black"></path></g></svg></g></g></svg></g><defs><mask></mask></defs></svg><rect width="395.52" height="247.2" fill="black" stroke="none" visibility="hidden"></rect></g></mask></svg><rect width="395.52" height="247.2" fill="black" stroke="none" visibility="hidden"></rect></g></mask><linearGradient x1="0" x2="1" y1="0.5" y2="0.5" id="b1ba2787-87de-4908-8f55-7c71a4317d15"><stop stop-color="#f00b51" offset="0"></stop><stop stop-color="#730062" offset="1"></stop></linearGradient><rect width="395.52" height="247.2" fill="url(#b1ba2787-87de-4908-8f55-7c71a4317d15)" mask="url(#ab20e77f-9cd6-4407-ace5-35b8b53a5e43)" data-fill-palette-color="accent"></rect></svg><rect width="395.52" height="247.2" fill="none" stroke="none" visibility="hidden"></rect></g></svg></g></svg>